<?xml version="1.0" encoding="utf-8"?>
<!-- Generator: Adobe Illustrator 24.0.1, SVG Export Plug-In . SVG Version: 6.00 Build 0)  -->
<svg version="1.1" id="Capa_1" xmlns="http://www.w3.org/2000/svg" xmlns:xlink="http://www.w3.org/1999/xlink" x="0px" y="0px"
	 viewBox="0 0 292.6 367" style="enable-background:new 0 0 292.6 367;" xml:space="preserve">
<style type="text/css">
	.st0{fill:#7471F4;}
	.st1{fill:#FFFFFF;}
	.st2{fill:#3C3D3F;}
	.st3{fill:#4E4ED1;}
	.st4{fill:#94B6C2;}
	.st5{font-family:'BerlinSansFB-Bold';}
	.st6{font-size:100px;}
</style>
<title>Logo</title>
<path class="st0" d="M217.2,84.7c0-12.6,4.7-24.4,4.7-24.4c-33.1-3.7-51.4,4.8-75.5,4.8s-42.4-8.5-75.5-4.8c0,0,4.7,11.9,4.7,24.4
	S63.8,115,63.8,115s4.5,23.1,7.5,30.5c3.6,9.1,12.3,18.6,19.3,31.4c4.2,7.7,6.5,16.4,6.7,25.2l0,0c-2,2.3-3.6,5.6-4,11.6
	c-1,15.9,8.3,28.3,22.2,27l1-0.1c0.9,2.4,3,4.2,5.5,4.7c6.8,1.5,12.3,4,24.4,4s17.6-2.5,24.4-4c2.5-0.5,4.6-2.2,5.6-4.7l0.9,0.1
	c13.9,1.3,23.2-11.1,22.2-27c-0.4-6-2-9.3-4-11.6l0,0c0.2-8.8,2.5-17.4,6.7-25.2c7-12.8,15.6-22.3,19.3-31.4
	c3-7.4,7.5-30.5,7.5-30.5S217.2,97.2,217.2,84.7z"/>
<path class="st0" d="M228.8,115c2.1,1.1,4.3,1.7,6.6,1.8c3.1,0,12.8-0.9,23.3,2.8c10.2,3.6,15.7,14.9,17.5,21.1
	c0.5,1.9-20.2,4.4-29.5,2.7c-11.6-2.1-14.1-8.3-21.4-12.2L228.8,115z"/>
<path class="st1" d="M221.8,60.3c0,0,22.3,1.9,26.7-2.7s12.6-20.5,10-30S236,1.7,237.5,0.2s44.4,6.2,52.4,32.3s-3.3,53.5-22,69.4
	S228.8,115,228.8,115s-11.6-17.8-11.6-30.3S221.8,60.3,221.8,60.3z"/>
<path class="st2" d="M201.9,113.3c5.4,5.6,4.6,18-2.4,22.9c-7.3,5-19.8,3.9-22.3-8.1c3.1-0.2,6.1-1.2,8.6-2.9
	C191.4,121.5,196.8,117.6,201.9,113.3z"/>
<path class="st3" d="M216.1,107.6c-3.7,0.6-7.3,1.8-10.5,3.6c-4,2.4-12,11-20.4,16.3c-6.8,4.3-17.3,6-23.9,2.4
	c-5.7-3.1-6.7-6.1-6.7-9.8c0-4.4,6.7-2.8,6.7-0.7c0,9.1,15,8.1,26.7-0.6c4.9-3.6,11.9-8.9,17.3-10.5
	C208.8,107.3,212.5,107.1,216.1,107.6z"/>
<path class="st3" d="M176.3,240.5c-13.7-1.3-5-12.3-29.9-12.3v1c16.9,0,18,7.3,22.5,9.8C171,240.4,173.7,240.9,176.3,240.5z"/>
<path class="st3" d="M116.4,240.5c13.7-1.3,5-12.3,29.9-12.3v1c-16.8,0-18,7.3-22.5,9.8C121.6,240.4,118.9,240.9,116.4,240.5z"/>
<path class="st3" d="M192.4,187.8c-9.5-13.4-13.3-13.1-18.5-22.9c-6.2-11.7-4.8-27.2-4.8-27.2s2.6,3.8,9.6,5.7
	c4.9,1.2,10,1.8,15.1,1.8c-4.2,0.2-8.5,0.7-12.7,1.5c-4.6,1-5.6,1.6-6.2,3.3s-0.7,6.2,2.5,14.4C180.2,171.6,188,175.9,192.4,187.8z"
	/>
<path class="st1" d="M195.4,130.6c-0.1,2-1.7,3.6-3.8,3.6c-2-0.1-3.6-1.7-3.6-3.8c0.1-2,1.7-3.6,3.7-3.6
	C193.8,126.9,195.4,128.6,195.4,130.6L195.4,130.6z"/>
<path class="st0" d="M63.8,115c-2.1,1.1-4.3,1.7-6.6,1.8c-3.1,0-12.8-0.9-23.3,2.8c-10.3,3.6-15.7,14.9-17.5,21.1
	c-0.5,1.9,20.2,4.4,29.5,2.7c11.6-2.1,14.1-8.3,21.4-12.2L63.8,115z"/>
<path class="st1" d="M70.8,60.3c0,0-22.2,1.9-26.7-2.7s-12.7-20.5-9.9-30s22.5-25.9,21-27.4S10.7,6.3,2.6,32.5s3.3,53.6,22,69.4
	S63.8,115,63.8,115s11.7-17.8,11.7-30.3S70.8,60.3,70.8,60.3z"/>
<path class="st2" d="M90.7,113.3c-5.4,5.6-4.6,18,2.4,22.9c7.3,5,19.8,3.9,22.3-8.1c-3.1-0.2-6.1-1.2-8.6-2.9
	C101.2,121.5,95.8,117.6,90.7,113.3z"/>
<path class="st3" d="M76.5,107.6c3.7,0.6,7.3,1.8,10.5,3.6c4,2.4,12,11,20.4,16.3c6.8,4.3,17.3,6,23.9,2.4c5.7-3.1,6.7-6.1,6.7-9.8
	c0-4.4-6.7-2.8-6.7-0.7c0,9.1-15,8.1-26.7-0.6c-4.9-3.6-11.9-8.9-17.3-10.5C83.9,107.3,80.2,107.1,76.5,107.6z"/>
<path class="st1" d="M97.2,130.6c0.1,2,1.7,3.6,3.8,3.6c2-0.1,3.6-1.7,3.6-3.8c-0.1-2-1.7-3.6-3.7-3.6
	C98.8,126.9,97.2,128.6,97.2,130.6L97.2,130.6z"/>
<path class="st2" d="M183.1,208.6c0,0-13.2,17.3-36.8,17.3s-36.8-17.3-36.8-17.3c-6.8,1.9-9.2,13.8-4.5,18.5
	c6.2,6.1,13.8,5.4,19.1,2.8c6.5-3.2,8.8-0.5,14-1.1c5.5-0.7,11-0.7,16.4,0c5.2,0.7,7.5-2,14,1.1c5.3,2.6,12.9,3.3,19.1-2.8
	C192.3,222.4,189.9,210.5,183.1,208.6z"/>
<path class="st3" d="M100.2,187.8c9.5-13.4,13.3-13.1,18.5-22.9c6.2-11.7,4.8-27.2,4.8-27.2s-2.6,3.8-9.5,5.7
	c-4.9,1.2-10,1.8-15.1,1.8c4.2,0.2,8.5,0.7,12.7,1.5c4.6,1,5.6,1.6,6.2,3.3s0.7,6.2-2.5,14.4C112.4,171.6,104.6,175.9,100.2,187.8z"
	/>
<path class="st3" d="M195.4,202c0,0-11.9-10.5-15.7-11.3c-4.5-0.9-13.1,3.5-13.1,3.5s6.4-6.1,13.4-5.6c4.1,0.3,15.5,10.3,15.5,10.3
	L195.4,202L195.4,202z"/>
<path class="st3" d="M97.2,202c0,0,11.9-10.5,15.7-11.3c4.5-0.9,13.1,3.5,13.1,3.5s-6.4-6.1-13.4-5.6C108.5,189,97.2,199,97.2,199
	V202z"/>
<path class="st3" d="M153.6,199.3c-2.7,0.4-7.3,0.8-7.3,0.8s-4.6-0.3-7.3-0.8c-2.7-0.6-5.3-1.4-7.8-2.4c2.1,1.9,4.7,3.2,7.6,3.8
	c2.5,0.6,5,0.9,7.5,1c2.5-0.1,5.1-0.4,7.6-1c2.8-0.6,5.4-1.9,7.6-3.8C158.9,197.9,156.3,198.7,153.6,199.3z"/>
<path class="st3" d="M226.5,126.2l-0.9,3.9c9.4,1.1,10.4,9.2,24.6,10.6c9.4,0.9,20.9-0.6,20.9-0.6c-6.6-4.5-13.8-8.1-21.4-10.6
	C242.2,127.2,234.4,126.1,226.5,126.2z"/>
<path class="st3" d="M66.1,126.2l0.9,3.9c-9.4,1.1-10.4,9.2-24.6,10.6c-9.3,0.9-20.9-0.6-20.9-0.6c6.6-4.5,13.8-8.1,21.4-10.6
	C50.5,127.2,58.3,126.1,66.1,126.2z"/>
<path class="st4" d="M226.8,67.7c27.3,1.8,34.8-6.9,37.7-30.6c0,0,4.5,22.7-5.3,31.1c-11,9.5-38.4,9.9-38.4,9.9L226.8,67.7z"/>
<path class="st4" d="M65.8,67.7C38.5,69.5,31,60.9,28.1,37.1c0,0-4.5,22.7,5.2,31.1c11,9.5,38.4,9.9,38.4,9.9L65.8,67.7z"/>
<text transform="matrix(1 0 0 1 49.26 338.47)" class="st0 st5 st6">T</text>
<text transform="matrix(1 0 0 1 102.04 338.47)" class="st1 st5 st6">SIX</text>
</svg>
