<?xml version="1.0" encoding="utf-8"?>
<!-- Generator: Adobe Illustrator 24.0.1, SVG Export Plug-In . SVG Version: 6.00 Build 0)  -->
<svg version="1.1" id="Capa_1" xmlns="http://www.w3.org/2000/svg" xmlns:xlink="http://www.w3.org/1999/xlink" x="0px" y="0px"
	 viewBox="0 0 681.4 700" style="enable-background:new 0 0 681.4 700;" xml:space="preserve">
<style type="text/css">
	.st0{fill:#7871F0;}
</style>
<title>Analisis</title>
<g id="Capa_2_1_">
	<g id="Layer1">
		<rect x="144.1" y="590.3" class="st0" width="52.4" height="16.7"/>
		<rect x="144.1" y="540.8" class="st0" width="52.4" height="16.7"/>
		<rect x="158.4" y="417.3" class="st0" width="52.4" height="16.7"/>
		<rect x="144.1" y="442" class="st0" width="52.4" height="16.7"/>
		<rect x="129.8" y="565.5" class="st0" width="52.4" height="16.7"/>
		<rect x="158.4" y="516.1" class="st0" width="52.4" height="16.7"/>
		<rect x="136.9" y="466.7" class="st0" width="52.4" height="16.7"/>
		<rect x="144.1" y="491.4" class="st0" width="52.4" height="16.7"/>
		<rect x="271.6" y="590.3" class="st0" width="52.5" height="16.7"/>
		<rect x="278.8" y="540.8" class="st0" width="52.4" height="16.7"/>
		<rect x="278.8" y="417.3" class="st0" width="52.4" height="16.7"/>
		<rect x="257.3" y="442" class="st0" width="52.5" height="16.7"/>
		<rect x="257.3" y="565.5" class="st0" width="52.5" height="16.7"/>
		<rect x="264.5" y="516.1" class="st0" width="52.5" height="16.7"/>
		<rect x="271.6" y="466.7" class="st0" width="52.5" height="16.7"/>
		<rect x="257.3" y="491.4" class="st0" width="52.5" height="16.7"/>
		<rect x="271.6" y="292.6" class="st0" width="52.4" height="16.7"/>
		<rect x="264.5" y="317.3" class="st0" width="52.5" height="16.7"/>
		<rect x="286" y="391.4" class="st0" width="52.5" height="16.7"/>
		<rect x="264.5" y="342" class="st0" width="52.5" height="16.7"/>
		<rect x="278.8" y="366.7" class="st0" width="52.5" height="16.7"/>
		<rect x="403.4" y="590.3" class="st0" width="52.5" height="16.7"/>
		<rect x="381.9" y="540.8" class="st0" width="52.4" height="16.7"/>
		<rect x="403.4" y="417.3" class="st0" width="52.4" height="16.7"/>
		<rect x="410.6" y="442" class="st0" width="52.5" height="16.7"/>
		<rect x="389.1" y="565.5" class="st0" width="52.5" height="16.7"/>
		<rect x="389.1" y="516.1" class="st0" width="52.5" height="16.7"/>
		<rect x="417.7" y="466.7" class="st0" width="52.5" height="16.7"/>
		<rect x="403.4" y="491.4" class="st0" width="52.5" height="16.7"/>
		<rect x="396.3" y="392.4" class="st0" width="52.5" height="16.7"/>
		<rect x="410.6" y="343" class="st0" width="52.4" height="16.7"/>
		<rect x="403.4" y="219.5" class="st0" width="52.4" height="16.7"/>
		<rect x="410.6" y="244.2" class="st0" width="52.5" height="16.7"/>
		<rect x="403.4" y="367.7" class="st0" width="52.5" height="16.7"/>
		<rect x="396.3" y="318.3" class="st0" width="52.5" height="16.7"/>
		<rect x="403.4" y="268.9" class="st0" width="52.5" height="16.7"/>
		<rect x="389.1" y="293.6" class="st0" width="52.5" height="16.7"/>
		<rect x="540.9" y="590.3" class="st0" width="52.5" height="16.7"/>
		<rect x="526.6" y="540.8" class="st0" width="52.4" height="16.7"/>
		<rect x="555.3" y="417.3" class="st0" width="52.4" height="16.7"/>
		<rect x="562.4" y="442" class="st0" width="52.5" height="16.7"/>
		<rect x="533.8" y="565.5" class="st0" width="52.5" height="16.7"/>
		<rect x="533.8" y="516.1" class="st0" width="52.5" height="16.7"/>
		<rect x="555.3" y="466.7" class="st0" width="52.5" height="16.7"/>
		<rect x="540.9" y="491.4" class="st0" width="52.5" height="16.7"/>
		<rect x="540.9" y="392.4" class="st0" width="52.5" height="16.7"/>
		<rect x="526.6" y="343" class="st0" width="52.4" height="16.7"/>
		<rect x="533.8" y="219.5" class="st0" width="52.4" height="16.7"/>
		<rect x="540.9" y="244.2" class="st0" width="52.5" height="16.7"/>
		<rect x="533.8" y="367.7" class="st0" width="52.5" height="16.7"/>
		<rect x="533.8" y="318.3" class="st0" width="52.5" height="16.7"/>
		<rect x="548.1" y="268.9" class="st0" width="52.5" height="16.7"/>
		<rect x="540.9" y="293.6" class="st0" width="52.5" height="16.7"/>
		<rect x="540.9" y="294.8" class="st0" width="52.5" height="16.7"/>
		<rect x="540.9" y="121.8" class="st0" width="52.4" height="16.7"/>
		<rect x="548.1" y="146.6" class="st0" width="52.5" height="16.7"/>
		<rect x="533.8" y="171.3" class="st0" width="52.5" height="16.7"/>
		<rect x="526.6" y="196" class="st0" width="52.5" height="16.7"/>
		<polygon class="st0" points="663.1,48.8 634.6,28.9 634.4,27.7 633.2,27.9 593.4,0 600.1,34.2 528.8,47.8 460.4,138.2 
			406.1,132.3 331.5,222.7 260,222.7 182.1,341.4 108.6,372.7 125.4,412.2 210.9,375.9 283.2,265.7 351.8,265.7 424.5,177.5 
			480,183.6 553.1,86.9 608.4,76.4 614.9,109.5 		"/>
		<polygon class="st0" points="681.4,635.3 70.4,635.3 70.4,25.1 54.8,25.1 54.8,635.3 0,635.3 0,651 54.8,651 54.8,700 70.4,700 
			70.4,651 681.4,651 		"/>
	</g>
</g>
</svg>
