<?xml version="1.0" encoding="utf-8"?>
<!-- Generator: Adobe Illustrator 24.0.1, SVG Export Plug-In . SVG Version: 6.00 Build 0)  -->
<svg version="1.1" xmlns="http://www.w3.org/2000/svg" xmlns:xlink="http://www.w3.org/1999/xlink" x="0px" y="0px"
	 viewBox="0 0 500 500" style="enable-background:new 0 0 500 500;" xml:space="preserve">
<style type="text/css">
	.st0{display:none;}
	.st1{display:inline;}
	.st2{fill:#E6E6E6;}
	.st3{opacity:0.7;}
	.st4{fill:none;stroke:#E6E6E6;stroke-miterlimit:10;}
	.st5{fill:#E0E0E0;}
	.st6{fill:#407BFF;}
	.st7{opacity:0.9;fill:#FFFFFF;}
	.st8{fill:#F5F5F5;}
	.st9{opacity:0.2;}
	.st10{opacity:0.6;fill:#FFFFFF;}
	.st11{opacity:0.3;}
	.st12{opacity:0.3;fill:#FFFFFF;enable-background:new    ;}
	.st13{opacity:0.3;fill:#FFFFFF;}
	.st14{opacity:0.2;fill:#FFFFFF;}
	.st15{fill:#263238;}
	.st16{opacity:0.3;enable-background:new    ;}
	.st17{fill:#FFFFFF;}
	.st18{fill:none;stroke:#263238;stroke-miterlimit:10;}
	.st19{opacity:0.1;}
	.st20{opacity:0.7;fill:#FFFFFF;}
	.st21{fill:none;stroke:#263238;stroke-linecap:round;stroke-linejoin:round;stroke-miterlimit:10;}
	.st22{fill:#B97964;}
	.st23{opacity:0.2;enable-background:new    ;}
	.st24{opacity:0.2;fill:none;stroke:#000000;stroke-width:0.5;stroke-linecap:round;stroke-linejoin:round;stroke-miterlimit:10;}
	.st25{fill:#A24E3F;}
	.st26{fill:#FF3F3E;}
	.st27{fill:#863936;}
	.st28{fill:none;stroke:#407BFF;stroke-width:0.5;stroke-linecap:round;stroke-linejoin:round;stroke-miterlimit:10;}
	.st29{opacity:0.4;fill:#FFFFFF;enable-background:new    ;}
	.st30{fill:#6B0000;}
	.st31{fill:none;stroke:#263238;stroke-width:0.5;stroke-linecap:round;stroke-linejoin:round;stroke-miterlimit:10;}
	.st32{fill:#FFBFB8;}
	.st33{opacity:0.1;fill:#FFFFFF;enable-background:new    ;}
</style>
<g id="Background_complete" class="st0">
	<g class="st1">
		<g>
			<path class="st2" d="M434,272.5c16-1.5,30.8-12.6,36.6-27.6C455.4,246.1,440.4,258.7,434,272.5"/>
		</g>
		<g>
			<path class="st2" d="M445,237.7c1.5-16-6.7-32.6-20.4-41.1C423,211.8,432.6,228.8,445,237.7"/>
		</g>
		<g>
			<path class="st2" d="M444.6,237.3c14.8-6.4,25.2-21.7,26-37.8C456.6,205.5,446.3,222.2,444.6,237.3"/>
		</g>
		<g>
			<path class="st2" d="M446.5,202.7c-1.9-16-13.5-30.4-28.7-35.7C419.5,182.1,432.5,196.7,446.5,202.7"/>
		</g>
		<g>
			<path class="st2" d="M446.7,203.2c13-9.5,20-26.6,17.3-42.5C451.6,169.6,445.2,188,446.7,203.2"/>
		</g>
		<g>
			<path class="st2" d="M442,172.8c3.1-15.8-3.3-33.1-16.1-42.9C422.8,144.8,430.6,162.7,442,172.8"/>
		</g>
		<g>
			<path class="st2" d="M435.8,272.4c4.9-15.3,0.3-33.3-11.3-44.4C419.8,242.5,425.6,261.1,435.8,272.4"/>
		</g>
		<g>
			<path class="st2" d="M418.8,302c8.5-13.7,8.5-32.2,0-45.9C410.6,269,411.7,288.5,418.8,302"/>
		</g>
		<g>
			<path class="st2" d="M417.9,302.2c15.9,2.5,32.9-4.7,42.3-17.8C445.1,281.9,427.5,290.4,417.9,302.2"/>
		</g>
		<g>
			<path class="st2" d="M395.3,328.6c11.4-11.3,15.7-29.3,10.7-44.6C395.1,294.6,391.5,313.8,395.3,328.6"/>
		</g>
		<g>
			<path class="st2" d="M395.2,327.8c14.9,6.2,33.1,3.1,45.2-7.5C426.5,314.4,407.4,318.6,395.2,327.8"/>
		</g>
		<g>
			<path class="st2" d="M373,346.6c11.4-11.3,15.7-29.3,10.7-44.6C372.7,312.6,369.2,331.8,373,346.6"/>
		</g>
		<g>
			<g>
				<path class="st2" d="M371.5,346c14.9,6.2,33.1,3.1,45.2-7.5C402.7,332.6,383.6,336.8,371.5,346"/>
			</g>
			<g class="st3">
				<path class="st2" d="M371.5,346"/>
			</g>
		</g>
		<g>
			<path class="st4" d="M369.9,346.9c30.9-18.4,55.2-47.7,67.5-81.6c12.3-33.8,12.4-71.9,0.5-105.9"/>
		</g>
	</g>
	<g class="st1">
		<g>
			<path class="st2" d="M67.1,290.2c-16.6-1.5-31.8-13-37.8-28.5C45,263,60.4,276,67.1,290.2"/>
		</g>
		<g>
			<path class="st2" d="M55.7,254.3c-1.6-16.5,6.9-33.7,21-42.4C78.4,227.5,68.5,245.1,55.7,254.3"/>
		</g>
		<g>
			<path class="st2" d="M56.1,253.9c-15.2-6.7-26.1-22.4-26.9-39C43.8,221.1,54.3,238.3,56.1,253.9"/>
		</g>
		<g>
			<path class="st2" d="M54.1,218.2c2-16.5,14-31.4,29.6-36.9C82,196.9,68.6,211.9,54.1,218.2"/>
		</g>
		<g>
			<path class="st2" d="M53.9,218.6c-13.4-9.8-20.7-27.4-17.9-43.8C48.8,183.9,55.5,203,53.9,218.6"/>
		</g>
		<g>
			<path class="st2" d="M58.8,187.3c-3.2-16.3,3.5-34.2,16.6-44.3C78.6,158.4,70.6,176.9,58.8,187.3"/>
		</g>
		<g>
			<path class="st2" d="M65.1,290.1c-5-15.8-0.3-34.4,11.6-45.9C81.7,259.2,75.7,278.5,65.1,290.1"/>
		</g>
		<g>
			<path class="st2" d="M82.8,320.6c-8.8-14.1-8.8-33.2,0-47.3C91.2,286.6,90.1,306.7,82.8,320.6"/>
		</g>
		<g>
			<path class="st2" d="M83.7,320.9c-16.4,2.6-34-4.8-43.6-18.4C55.6,299.9,73.8,308.7,83.7,320.9"/>
		</g>
		<g>
			<path class="st2" d="M107,348.1c-11.8-11.7-16.3-30.3-11-46C107.2,313,110.9,332.9,107,348.1"/>
		</g>
		<g>
			<path class="st2" d="M107.1,347.3c-15.4,6.4-34.2,3.2-46.7-7.7C74.8,333.4,94.6,337.8,107.1,347.3"/>
		</g>
		<g>
			<path class="st2" d="M130.1,366.7c-11.8-11.7-16.3-30.3-11-46C130.3,331.6,134,351.4,130.1,366.7"/>
		</g>
		<g>
			<g>
				<path class="st2" d="M131.6,366.1c-15.4,6.4-34.2,3.2-46.7-7.7C99.4,352.2,119.1,356.6,131.6,366.1"/>
			</g>
			<g class="st3">
				<path class="st2" d="M131.6,366.1"/>
			</g>
		</g>
		<g>
			<path class="st4" d="M133.2,367c-31.9-19-57-49.3-69.7-84.2c-12.7-34.9-12.8-74.2-0.5-109.3"/>
		</g>
	</g>
	<g class="st1">
		<g>
			<g>
				<g>
					<g>
						<path class="st5" d="M443.9,315.9H263.2c-3.2,0-5.9-2.6-5.9-5.9V46.7c0-3.2,2.6-5.9,5.9-5.9h180.7c3.2,0,5.9,2.6,5.9,5.9V310
							C449.8,313.2,447.2,315.9,443.9,315.9z M263.2,41.1c-3.1,0-5.6,2.5-5.6,5.6V310c0,3.1,2.5,5.6,5.6,5.6h180.7
							c3.1,0,5.6-2.5,5.6-5.6V46.7c0-3.1-2.5-5.6-5.6-5.6H263.2z"/>
					</g>
				</g>
				<g>
					<g>
						<path class="st5" d="M235.5,315.9H54.7c-3.2,0-5.9-2.6-5.9-5.9V46.7c0-3.2,2.6-5.9,5.9-5.9h180.7c3.2,0,5.9,2.6,5.9,5.9V310
							C241.4,313.2,238.7,315.9,235.5,315.9z M54.7,41.1c-3.1,0-5.6,2.5-5.6,5.6V310c0,3.1,2.5,5.6,5.6,5.6h180.7
							c3.1,0,5.6-2.5,5.6-5.6V46.7c0-3.1-2.5-5.6-5.6-5.6H54.7z"/>
					</g>
				</g>
			</g>
			<g>
				<g>
					<rect x="0" y="376.9" class="st5" width="500" height="0.3"/>
				</g>
			</g>
		</g>
		<rect x="51.7" y="391.2" class="st5" width="16.1" height="0.3"/>
		<rect x="170.4" y="388.5" class="st5" width="53.5" height="0.3"/>
		<rect x="68.7" y="400.5" class="st5" width="36.2" height="0.3"/>
		<rect x="378.4" y="388.4" class="st5" width="43.2" height="0.3"/>
		<rect x="430.5" y="388.4" class="st5" width="6.3" height="0.3"/>
		<rect x="316.2" y="394.6" class="st5" width="53.9" height="0.3"/>
	</g>
</g>
<g id="Background_simple" class="st0">
	<g class="st1">
		<path class="st6" d="M185.8,91.8c-21.6,2.8-42.4,8.9-60.8,18.4c-21.7,11.2-43.9,28.7-37.4,51.5c12.1,42.1,70.2,42.9,58.6,71.3
			c-13.1,32.1-4.3,69.8,54.6,80.2c112,19.9,247.4-96.5,209.3-160.4C386.5,113,300.3,76.7,185.8,91.8z"/>
		<path class="st7" d="M185.8,91.8c-21.6,2.8-42.4,8.9-60.8,18.4c-21.7,11.2-43.9,28.7-37.4,51.5c12.1,42.1,70.2,42.9,58.6,71.3
			c-13.1,32.1-4.3,69.8,54.6,80.2c112,19.9,247.4-96.5,209.3-160.4C386.5,113,300.3,76.7,185.8,91.8z"/>
	</g>
</g>
<g id="Shadow" class="st0">
	<g class="st1">
		<g>
			<path class="st8" d="M458.6,466.3c0,3.4-93.5,6.1-208.9,6.1s-208.9-2.7-208.9-6.1c0-3.4,93.5-6.1,208.9-6.1
				S458.6,462.9,458.6,466.3z"/>
		</g>
	</g>
</g>
<g id="Credit_Cards">
	<g>
		<g>
			<path class="st6" d="M365.6,127.1L300.4,109c-0.9-0.2-1.4-1.2-1.2-2.1l11.3-40.6c0.2-0.9,1.2-1.4,2.1-1.2l65.2,18.1
				c0.9,0.2,1.4,1.2,1.2,2.1L367.6,126C367.4,126.8,366.5,127.4,365.6,127.1z"/>
		</g>
		<g class="st9">
			<path d="M365.6,127.1L300.4,109c-0.9-0.2-1.4-1.2-1.2-2.1l11.3-40.6c0.2-0.9,1.2-1.4,2.1-1.2l65.2,18.1c0.9,0.2,1.4,1.2,1.2,2.1
				L367.6,126C367.4,126.8,366.5,127.4,365.6,127.1z"/>
		</g>
		<g>
			<path class="st6" d="M405.7,152.2L340,168.7c-0.9,0.2-1.8-0.3-2-1.2l-10.3-40.9c-0.2-0.9,0.3-1.8,1.2-2l65.6-16.5
				c0.9-0.2,1.8,0.3,2,1.2l10.3,40.9C407.1,151,406.6,152,405.7,152.2z"/>
			<path class="st10" d="M353.6,140.2l-9.7,2.4c-1.1,0.3-2.2-0.4-2.5-1.5l-2-7.8c-0.3-1.1,0.4-2.2,1.5-2.5l9.7-2.4
				c1.1-0.3,2.2,0.4,2.5,1.5l2,7.8C355.3,138.8,354.7,140,353.6,140.2z"/>
			<g class="st11">
				<path d="M344.1,152.2c3-0.7,5.9-1.5,8.9-2.2c1-0.3,0.6-1.8-0.4-1.6c-3,0.7-5.9,1.5-8.9,2.2C342.7,150.9,343.1,152.4,344.1,152.2
					L344.1,152.2z"/>
			</g>
			<g class="st11">
				<path d="M357.8,148.7c3-0.7,5.9-1.5,8.9-2.2c1-0.3,0.6-1.8-0.4-1.6c-3,0.7-5.9,1.5-8.9,2.2C356.4,147.4,356.8,149,357.8,148.7
					L357.8,148.7z"/>
			</g>
			<g class="st11">
				<path d="M371.5,145.3c3-0.7,5.9-1.5,8.9-2.2c1-0.3,0.6-1.8-0.4-1.6c-3,0.7-5.9,1.5-8.9,2.2C370.1,144,370.5,145.5,371.5,145.3
					L371.5,145.3z"/>
			</g>
			<g class="st11">
				<path d="M385.2,141.8c3-0.7,5.9-1.5,8.9-2.2c1-0.3,0.6-1.8-0.4-1.6c-3,0.7-5.9,1.5-8.9,2.2C383.8,140.5,384.2,142.1,385.2,141.8
					L385.2,141.8z"/>
			</g>
		</g>
		<path class="st11" d="M302.7,94.3c0.1-0.4,68.4,19.2,68.4,19.2l3.7-13.2l-68.3-19.6L302.7,94.3z"/>
		<polygon class="st11" points="343.1,121 339.1,119.7 371.7,111.4 370.9,114 		"/>
	</g>
</g>
<g id="Coins">
	<g>
		<path class="st6" d="M304.3,235.6c8.8-4.1,19.2-0.3,23.3,8.4c4.1,8.8,0.3,19.2-8.4,23.3c-8.8,4.1-19.2,0.3-23.3-8.4
			C291.7,250.2,295.5,239.7,304.3,235.6z"/>
		<path class="st12" d="M313.3,252.7l1.3,3.8c1.5-0.8,1.9-1.7,1.5-2.7C315.8,252.7,314.7,252.6,313.3,252.7z"/>
		<path class="st12" d="M307.7,249.2c0.4,1,1.4,1.2,2.8,1.1l-1.3-3.8C307.7,247.2,307.3,248.2,307.7,249.2z"/>
		<path class="st12" d="M306.8,237.4c-7.8,2.8-11.9,11.3-9.1,19.1c2.8,7.8,11.3,11.9,19.1,9.1c7.8-2.8,11.9-11.3,9.1-19.1l0,0
			C323.1,238.7,314.5,234.6,306.8,237.4z M315.4,258.7l0.8,2.4l-1.7,0.6l-0.8-2.4c-2.1,0.6-4.4,0.6-5.8,0.1l0.2-2.5
			c1.6,0.5,3.2,0.5,4.8,0.1l-1.5-4.3c-2.6,0.3-5.4,0.4-6.4-2.6c-0.8-2.2,0.1-4.6,3.3-6.1l-0.8-2.4l1.7-0.6l0.8,2.4
			c1.5-0.5,3.2-0.6,4.8-0.2l-0.1,2.5c-1.3-0.2-2.6-0.2-3.9,0.1l1.5,4.3c2.6-0.3,5.4-0.4,6.4,2.5
			C319.6,254.8,318.7,257.2,315.4,258.7L315.4,258.7z"/>
	</g>
	<g>
		<path class="st6" d="M88.1,229.6c8.4-3.9,18.4-0.3,22.4,8.1c3.9,8.4,0.3,18.4-8.1,22.4c-8.4,3.9-18.4,0.3-22.4-8.1
			C76,243.5,79.6,233.5,88.1,229.6z"/>
		<path class="st12" d="M96.7,245.9l1.3,3.6c1.4-0.8,1.8-1.7,1.5-2.5C99.1,246,98.1,245.8,96.7,245.9z"/>
		<path class="st12" d="M91.3,242.6c0.3,1,1.4,1.1,2.7,1l-1.3-3.6C91.4,240.7,91,241.7,91.3,242.6z"/>
		<path class="st12" d="M90.4,231.2c-7.5,2.6-11.4,10.8-8.8,18.3c2.6,7.5,10.8,11.4,18.3,8.8c7.5-2.6,11.4-10.8,8.8-18.3l0,0
			C106.1,232.5,97.9,228.6,90.4,231.2z M98.8,251.8l0.8,2.3l-1.7,0.6l-0.8-2.3c-2,0.6-4.2,0.6-5.6,0.1l0.2-2.4
			c1.5,0.5,3.1,0.5,4.6,0.1l-1.4-4.1c-2.5,0.2-5.1,0.4-6.2-2.5c-0.7-2.1,0.1-4.4,3.2-5.9l-0.8-2.3l1.7-0.6l0.8,2.3
			c1.5-0.5,3.1-0.5,4.6-0.2l-0.1,2.4c-1.2-0.2-2.5-0.2-3.7,0.1l1.5,4.1c2.5-0.3,5.2-0.4,6.2,2.4C102.8,248,101.9,250.3,98.8,251.8
			L98.8,251.8z"/>
	</g>
	<g>
		<path class="st6" d="M336.1,290.5c5.3,4.3,6,12,1.7,17.3c-4.3,5.3-12,6-17.3,1.7c-5.3-4.3-6-12-1.7-17.3
			C323.1,287,330.8,286.2,336.1,290.5z"/>
		<path class="st12" d="M328.1,301.3l-2,2c0.9,0.7,1.7,0.7,2.1,0.2C328.8,302.9,328.6,302.2,328.1,301.3z"/>
		<path class="st12" d="M328.6,296.7c-0.5,0.5-0.3,1.3,0.2,2.1l2-2C329.8,296.2,329.1,296.2,328.6,296.7z"/>
		<path class="st12" d="M335.7,292.6c-4.1-4.1-10.7-4.1-14.8,0c-4.1,4.1-4.1,10.7,0,14.8c4.1,4.1,10.7,4.1,14.8,0l0,0
			C339.9,303.3,339.8,296.7,335.7,292.6z M324.9,304.5l-1.3,1.3l-0.9-0.9l1.2-1.2c-1-1.2-1.7-2.6-1.8-3.7l1.6-0.6
			c0.2,1.1,0.6,2.2,1.4,3.1l2.2-2.2c-0.9-1.5-1.9-3.3-0.3-4.8c1.1-1.1,2.9-1.3,4.9,0.3l1.3-1.3l0.9,0.9l-1.2,1.2
			c0.8,0.8,1.3,1.8,1.6,2.9l-1.6,0.7c-0.2-0.9-0.6-1.7-1.2-2.4l-2.3,2.3c0.9,1.5,1.9,3.3,0.4,4.8C328.6,306,326.8,306.1,324.9,304.5
			L324.9,304.5z"/>
	</g>
	<g>
		<path class="st6" d="M227.1,346.4h-43.5c-1.9,0-3.5-1.5-3.5-3.5l0,0c0-1.9,1.5-3.5,3.5-3.5h43.5c1.9,0,3.5,1.5,3.5,3.5l0,0
			C230.6,344.8,229,346.4,227.1,346.4z"/>
		<path class="st6" d="M223.9,359.9h-43.5c-1.9,0-3.5-1.5-3.5-3.5l0,0c0-1.9,1.5-3.5,3.5-3.5h43.5c1.9,0,3.5,1.5,3.5,3.5l0,0
			C227.3,358.4,225.8,359.9,223.9,359.9z"/>
		<g>
			<path class="st6" d="M224.7,339.4h-43.5c-1.9,0-3.5-1.5-3.5-3.5l0,0c0-1.9,1.5-3.5,3.5-3.5h43.5c1.9,0,3.5,1.5,3.5,3.5l0,0
				C228.2,337.8,226.6,339.4,224.7,339.4z"/>
			<path class="st13" d="M224.7,339.4h-43.5c-1.9,0-3.5-1.5-3.5-3.5l0,0c0-1.9,1.5-3.5,3.5-3.5h43.5c1.9,0,3.5,1.5,3.5,3.5l0,0
				C228.2,337.8,226.6,339.4,224.7,339.4z"/>
		</g>
		<g>
			<path class="st6" d="M223,353.1h-43.5c-1.9,0-3.5-1.5-3.5-3.5l0,0c0-1.9,1.5-3.5,3.5-3.5H223c1.9,0,3.5,1.5,3.5,3.5l0,0
				C226.5,351.6,224.9,353.1,223,353.1z"/>
			<path class="st13" d="M223,353.1h-43.5c-1.9,0-3.5-1.5-3.5-3.5l0,0c0-1.9,1.5-3.5,3.5-3.5H223c1.9,0,3.5,1.5,3.5,3.5l0,0
				C226.5,351.6,224.9,353.1,223,353.1z"/>
		</g>
		<g>
			<path class="st6" d="M226.5,332.5h-43.5c-1.9,0-3.5-1.5-3.5-3.5l0,0c0-1.9,1.5-3.5,3.5-3.5h43.5c1.9,0,3.5,1.5,3.5,3.5l0,0
				C229.9,330.9,228.4,332.5,226.5,332.5z"/>
			<g>
				<g class="st11">
					<g>
						<path d="M184.5,326.6c0,1.6,0,3.2,0,4.8c0,0.5,0.8,0.5,0.8,0c0-1.6,0-3.2,0-4.8C185.2,326.1,184.5,326.1,184.5,326.6
							L184.5,326.6z"/>
					</g>
				</g>
				<g class="st11">
					<g>
						<path d="M188.9,326.6c0,1.6,0,3.2,0,4.8c0,0.5,0.8,0.5,0.8,0c0-1.6,0-3.2,0-4.8C189.6,326.1,188.9,326.1,188.9,326.6
							L188.9,326.6z"/>
					</g>
				</g>
				<g class="st11">
					<g>
						<path d="M193,326.6c0,1.6,0,3.2,0,4.8c0,0.5,0.8,0.5,0.8,0c0-1.6,0-3.2,0-4.8C193.8,326.1,193,326.1,193,326.6L193,326.6z"/>
					</g>
				</g>
				<g class="st11">
					<g>
						<path d="M197.5,326.6c0,1.6,0,3.2,0,4.8c0,0.5,0.8,0.5,0.8,0c0-1.6,0-3.2,0-4.8C198.2,326.1,197.5,326.1,197.5,326.6
							L197.5,326.6z"/>
					</g>
				</g>
				<g class="st11">
					<g>
						<path d="M201.6,326.6c0,1.6,0,3.2,0,4.8c0,0.5,0.8,0.5,0.8,0c0-1.6,0-3.2,0-4.8C202.4,326.1,201.6,326.1,201.6,326.6
							L201.6,326.6z"/>
					</g>
				</g>
				<g class="st11">
					<g>
						<path d="M206.1,326.6c0,1.6,0,3.2,0,4.8c0,0.5,0.8,0.5,0.8,0c0-1.6,0-3.2,0-4.8C206.8,326.1,206.1,326.1,206.1,326.6
							L206.1,326.6z"/>
					</g>
				</g>
				<g class="st11">
					<g>
						<path d="M210.2,326.6c0,1.6,0,3.2,0,4.8c0,0.5,0.8,0.5,0.8,0c0-1.6,0-3.2,0-4.8C211,326.1,210.2,326.1,210.2,326.6
							L210.2,326.6z"/>
					</g>
				</g>
				<g class="st11">
					<g>
						<path d="M214.6,326.6c0,1.6,0,3.2,0,4.8c0,0.5,0.8,0.5,0.8,0c0-1.6,0-3.2,0-4.8C215.4,326.1,214.6,326.1,214.6,326.6
							L214.6,326.6z"/>
					</g>
				</g>
				<g class="st11">
					<g>
						<path d="M218.8,326.6c0,1.6,0,3.2,0,4.8c0,0.5,0.8,0.5,0.8,0c0-1.6,0-3.2,0-4.8C219.5,326.1,218.8,326.1,218.8,326.6
							L218.8,326.6z"/>
					</g>
				</g>
				<g class="st11">
					<g>
						<path d="M223.2,326.6c0,1.6,0,3.2,0,4.8c0,0.5,0.8,0.5,0.8,0c0-1.6,0-3.2,0-4.8C224,326.1,223.2,326.1,223.2,326.6
							L223.2,326.6z"/>
					</g>
				</g>
			</g>
		</g>
		<g>
			<g class="st11">
				<g>
					<path d="M182.9,333.6c0,1.6,0,3.2,0,4.8c0,0.5,0.8,0.5,0.8,0c0-1.6,0-3.2,0-4.8C183.7,333.1,182.9,333.1,182.9,333.6
						L182.9,333.6z"/>
				</g>
			</g>
			<g class="st11">
				<g>
					<path d="M187.3,333.6c0,1.6,0,3.2,0,4.8c0,0.5,0.8,0.5,0.8,0c0-1.6,0-3.2,0-4.8C188.1,333.1,187.3,333.1,187.3,333.6
						L187.3,333.6z"/>
				</g>
			</g>
			<g class="st11">
				<g>
					<path d="M191.5,333.6c0,1.6,0,3.2,0,4.8c0,0.5,0.8,0.5,0.8,0c0-1.6,0-3.2,0-4.8C192.2,333.1,191.5,333.1,191.5,333.6
						L191.5,333.6z"/>
				</g>
			</g>
			<g class="st11">
				<g>
					<path d="M195.9,333.6c0,1.6,0,3.2,0,4.8c0,0.5,0.8,0.5,0.8,0c0-1.6,0-3.2,0-4.8C196.7,333.1,195.9,333.1,195.9,333.6
						L195.9,333.6z"/>
				</g>
			</g>
			<g class="st11">
				<g>
					<path d="M200.1,333.6c0,1.6,0,3.2,0,4.8c0,0.5,0.8,0.5,0.8,0c0-1.6,0-3.2,0-4.8C200.8,333.1,200.1,333.1,200.1,333.6
						L200.1,333.6z"/>
				</g>
			</g>
			<g class="st11">
				<g>
					<path d="M204.5,333.6c0,1.6,0,3.2,0,4.8c0,0.5,0.8,0.5,0.8,0c0-1.6,0-3.2,0-4.8C205.2,333.1,204.5,333.1,204.5,333.6
						L204.5,333.6z"/>
				</g>
			</g>
			<g class="st11">
				<g>
					<path d="M208.7,333.6c0,1.6,0,3.2,0,4.8c0,0.5,0.8,0.5,0.8,0c0-1.6,0-3.2,0-4.8C209.4,333.1,208.7,333.1,208.7,333.6
						L208.7,333.6z"/>
				</g>
			</g>
			<g class="st11">
				<g>
					<path d="M213.1,333.6c0,1.6,0,3.2,0,4.8c0,0.5,0.8,0.5,0.8,0c0-1.6,0-3.2,0-4.8C213.8,333.1,213.1,333.1,213.1,333.6
						L213.1,333.6z"/>
				</g>
			</g>
			<g class="st11">
				<g>
					<path d="M217.2,333.6c0,1.6,0,3.2,0,4.8c0,0.5,0.8,0.5,0.8,0c0-1.6,0-3.2,0-4.8C218,333.1,217.2,333.1,217.2,333.6L217.2,333.6
						z"/>
				</g>
			</g>
			<g class="st11">
				<g>
					<path d="M221.7,333.6c0,1.6,0,3.2,0,4.8c0,0.5,0.8,0.5,0.8,0c0-1.6,0-3.2,0-4.8C222.4,333.1,221.7,333.1,221.7,333.6
						L221.7,333.6z"/>
				</g>
			</g>
		</g>
		<g>
			<g class="st11">
				<g>
					<path d="M187.2,340.7c0,1.6,0,3.2,0,4.8c0,0.5,0.8,0.5,0.8,0c0-1.6,0-3.2,0-4.8C187.9,340.2,187.2,340.2,187.2,340.7
						L187.2,340.7z"/>
				</g>
			</g>
			<g class="st11">
				<g>
					<path d="M191.6,340.7c0,1.6,0,3.2,0,4.8c0,0.5,0.8,0.5,0.8,0c0-1.6,0-3.2,0-4.8C192.4,340.2,191.6,340.2,191.6,340.7
						L191.6,340.7z"/>
				</g>
			</g>
			<g class="st11">
				<g>
					<path d="M195.8,340.7c0,1.6,0,3.2,0,4.8c0,0.5,0.8,0.5,0.8,0c0-1.6,0-3.2,0-4.8C196.5,340.2,195.8,340.2,195.8,340.7
						L195.8,340.7z"/>
				</g>
			</g>
			<g class="st11">
				<g>
					<path d="M200.2,340.7c0,1.6,0,3.2,0,4.8c0,0.5,0.8,0.5,0.8,0c0-1.6,0-3.2,0-4.8C200.9,340.2,200.2,340.2,200.2,340.7
						L200.2,340.7z"/>
				</g>
			</g>
			<g class="st11">
				<g>
					<path d="M204.3,340.7c0,1.6,0,3.2,0,4.8c0,0.5,0.8,0.5,0.8,0c0-1.6,0-3.2,0-4.8C205.1,340.2,204.3,340.2,204.3,340.7
						L204.3,340.7z"/>
				</g>
			</g>
			<g class="st11">
				<g>
					<path d="M208.8,340.7c0,1.6,0,3.2,0,4.8c0,0.5,0.8,0.5,0.8,0c0-1.6,0-3.2,0-4.8C209.5,340.2,208.8,340.2,208.8,340.7
						L208.8,340.7z"/>
				</g>
			</g>
			<g class="st11">
				<g>
					<path d="M212.9,340.7c0,1.6,0,3.2,0,4.8c0,0.5,0.8,0.5,0.8,0c0-1.6,0-3.2,0-4.8C213.7,340.2,212.9,340.2,212.9,340.7
						L212.9,340.7z"/>
				</g>
			</g>
			<g class="st11">
				<g>
					<path d="M217.3,340.7c0,1.6,0,3.2,0,4.8c0,0.5,0.8,0.5,0.8,0c0-1.6,0-3.2,0-4.8C218.1,340.2,217.3,340.2,217.3,340.7
						L217.3,340.7z"/>
				</g>
			</g>
			<g class="st11">
				<g>
					<path d="M221.5,340.7c0,1.6,0,3.2,0,4.8c0,0.5,0.8,0.5,0.8,0c0-1.6,0-3.2,0-4.8C222.3,340.2,221.5,340.2,221.5,340.7
						L221.5,340.7z"/>
				</g>
			</g>
			<g class="st11">
				<g>
					<path d="M225.9,340.7c0,1.6,0,3.2,0,4.8c0,0.5,0.8,0.5,0.8,0c0-1.6,0-3.2,0-4.8C226.7,340.2,225.9,340.2,225.9,340.7
						L225.9,340.7z"/>
				</g>
			</g>
		</g>
		<g>
			<g class="st11">
				<g>
					<path d="M180.7,347.3c0,1.6,0,3.2,0,4.8c0,0.5,0.8,0.5,0.8,0c0-1.6,0-3.2,0-4.8C181.4,346.8,180.7,346.8,180.7,347.3
						L180.7,347.3z"/>
				</g>
			</g>
			<g class="st11">
				<g>
					<path d="M185.1,347.3c0,1.6,0,3.2,0,4.8c0,0.5,0.8,0.5,0.8,0c0-1.6,0-3.2,0-4.8C185.8,346.8,185.1,346.8,185.1,347.3
						L185.1,347.3z"/>
				</g>
			</g>
			<g class="st11">
				<g>
					<path d="M189.2,347.3c0,1.6,0,3.2,0,4.8c0,0.5,0.8,0.5,0.8,0c0-1.6,0-3.2,0-4.8C190,346.8,189.2,346.8,189.2,347.3L189.2,347.3
						z"/>
				</g>
			</g>
			<g class="st11">
				<g>
					<path d="M193.7,347.3c0,1.6,0,3.2,0,4.8c0,0.5,0.8,0.5,0.8,0c0-1.6,0-3.2,0-4.8C194.4,346.8,193.7,346.8,193.7,347.3
						L193.7,347.3z"/>
				</g>
			</g>
			<g class="st11">
				<g>
					<path d="M197.8,347.3c0,1.6,0,3.2,0,4.8c0,0.5,0.8,0.5,0.8,0c0-1.6,0-3.2,0-4.8C198.6,346.8,197.8,346.8,197.8,347.3
						L197.8,347.3z"/>
				</g>
			</g>
			<g class="st11">
				<g>
					<path d="M202.2,347.3c0,1.6,0,3.2,0,4.8c0,0.5,0.8,0.5,0.8,0c0-1.6,0-3.2,0-4.8C203,346.8,202.2,346.8,202.2,347.3L202.2,347.3
						z"/>
				</g>
			</g>
			<g class="st11">
				<g>
					<path d="M206.4,347.3c0,1.6,0,3.2,0,4.8c0,0.5,0.8,0.5,0.8,0c0-1.6,0-3.2,0-4.8C207.2,346.8,206.4,346.8,206.4,347.3
						L206.4,347.3z"/>
				</g>
			</g>
			<g class="st11">
				<g>
					<path d="M210.8,347.3c0,1.6,0,3.2,0,4.8c0,0.5,0.8,0.5,0.8,0c0-1.6,0-3.2,0-4.8C211.6,346.8,210.8,346.8,210.8,347.3
						L210.8,347.3z"/>
				</g>
			</g>
			<g class="st11">
				<g>
					<path d="M215,347.3c0,1.6,0,3.2,0,4.8c0,0.5,0.8,0.5,0.8,0c0-1.6,0-3.2,0-4.8C215.7,346.8,215,346.8,215,347.3L215,347.3z"/>
				</g>
			</g>
			<g class="st11">
				<g>
					<path d="M219.4,347.3c0,1.6,0,3.2,0,4.8c0,0.5,0.8,0.5,0.8,0c0-1.6,0-3.2,0-4.8C220.2,346.8,219.4,346.8,219.4,347.3
						L219.4,347.3z"/>
				</g>
			</g>
		</g>
		<g>
			<g class="st11">
				<g>
					<path d="M183,354c0,1.6,0,3.2,0,4.8c0,0.5,0.8,0.5,0.8,0c0-1.6,0-3.2,0-4.8C183.8,353.6,183,353.6,183,354L183,354z"/>
				</g>
			</g>
			<g class="st11">
				<g>
					<path d="M187.5,354c0,1.6,0,3.2,0,4.8c0,0.5,0.8,0.5,0.8,0c0-1.6,0-3.2,0-4.8C188.2,353.6,187.5,353.6,187.5,354L187.5,354z"/>
				</g>
			</g>
			<g class="st11">
				<g>
					<path d="M191.6,354c0,1.6,0,3.2,0,4.8c0,0.5,0.8,0.5,0.8,0c0-1.6,0-3.2,0-4.8C192.4,353.6,191.6,353.6,191.6,354L191.6,354z"/>
				</g>
			</g>
			<g class="st11">
				<g>
					<path d="M196,354c0,1.6,0,3.2,0,4.8c0,0.5,0.8,0.5,0.8,0c0-1.6,0-3.2,0-4.8C196.8,353.6,196,353.6,196,354L196,354z"/>
				</g>
			</g>
			<g class="st11">
				<g>
					<path d="M200.2,354c0,1.6,0,3.2,0,4.8c0,0.5,0.8,0.5,0.8,0c0-1.6,0-3.2,0-4.8C200.9,353.6,200.2,353.6,200.2,354L200.2,354z"/>
				</g>
			</g>
			<g class="st11">
				<g>
					<path d="M204.6,354c0,1.6,0,3.2,0,4.8c0,0.5,0.8,0.5,0.8,0c0-1.6,0-3.2,0-4.8C205.4,353.6,204.6,353.6,204.6,354L204.6,354z"/>
				</g>
			</g>
			<g class="st11">
				<g>
					<path d="M208.8,354c0,1.6,0,3.2,0,4.8c0,0.5,0.8,0.5,0.8,0c0-1.6,0-3.2,0-4.8C209.5,353.6,208.8,353.6,208.8,354L208.8,354z"/>
				</g>
			</g>
			<g class="st11">
				<g>
					<path d="M213.2,354c0,1.6,0,3.2,0,4.8c0,0.5,0.8,0.5,0.8,0c0-1.6,0-3.2,0-4.8C213.9,353.6,213.2,353.6,213.2,354L213.2,354z"/>
				</g>
			</g>
			<g class="st11">
				<g>
					<path d="M217.3,354c0,1.6,0,3.2,0,4.8c0,0.5,0.8,0.5,0.8,0c0-1.6,0-3.2,0-4.8C218.1,353.6,217.3,353.6,217.3,354L217.3,354z"/>
				</g>
			</g>
			<g class="st11">
				<g>
					<path d="M221.8,354c0,1.6,0,3.2,0,4.8c0,0.5,0.8,0.5,0.8,0c0-1.6,0-3.2,0-4.8C222.5,353.6,221.8,353.6,221.8,354L221.8,354z"/>
				</g>
			</g>
		</g>
	</g>
	<g>
		<path class="st6" d="M381.7,345.1h-43.5c-1.9,0-3.5-1.5-3.5-3.5l0,0c0-1.9,1.5-3.5,3.5-3.5h43.5c1.9,0,3.5,1.5,3.5,3.5l0,0
			C385.2,343.5,383.6,345.1,381.7,345.1z"/>
		<path class="st6" d="M378.5,358.6h-43.5c-1.9,0-3.5-1.5-3.5-3.5l0,0c0-1.9,1.5-3.5,3.5-3.5h43.5c1.9,0,3.5,1.5,3.5,3.5l0,0
			C381.9,357.1,380.4,358.6,378.5,358.6z"/>
		<g>
			<path class="st6" d="M379.3,338.1h-43.5c-1.9,0-3.5-1.5-3.5-3.5l0,0c0-1.9,1.5-3.5,3.5-3.5h43.5c1.9,0,3.5,1.5,3.5,3.5l0,0
				C382.8,336.5,381.2,338.1,379.3,338.1z"/>
			<path class="st13" d="M379.3,338.1h-43.5c-1.9,0-3.5-1.5-3.5-3.5l0,0c0-1.9,1.5-3.5,3.5-3.5h43.5c1.9,0,3.5,1.5,3.5,3.5l0,0
				C382.8,336.5,381.2,338.1,379.3,338.1z"/>
		</g>
		<g>
			<path class="st6" d="M377.6,351.8h-43.5c-1.9,0-3.5-1.5-3.5-3.5l0,0c0-1.9,1.5-3.5,3.5-3.5h43.5c1.9,0,3.5,1.5,3.5,3.5l0,0
				C381.1,350.3,379.5,351.8,377.6,351.8z"/>
			<path class="st13" d="M377.6,351.8h-43.5c-1.9,0-3.5-1.5-3.5-3.5l0,0c0-1.9,1.5-3.5,3.5-3.5h43.5c1.9,0,3.5,1.5,3.5,3.5l0,0
				C381.1,350.3,379.5,351.8,377.6,351.8z"/>
		</g>
		<g>
			<path class="st6" d="M381.1,331.2h-43.5c-1.9,0-3.5-1.5-3.5-3.5l0,0c0-1.9,1.5-3.5,3.5-3.5h43.5c1.9,0,3.5,1.5,3.5,3.5l0,0
				C384.5,329.6,383,331.2,381.1,331.2z"/>
			<g>
				<g class="st11">
					<g>
						<path d="M339.1,325.3c0,1.6,0,3.2,0,4.8c0,0.5,0.8,0.5,0.8,0c0-1.6,0-3.2,0-4.8C339.8,324.8,339.1,324.8,339.1,325.3
							L339.1,325.3z"/>
					</g>
				</g>
				<g class="st11">
					<g>
						<path d="M343.5,325.3c0,1.6,0,3.2,0,4.8c0,0.5,0.8,0.5,0.8,0c0-1.6,0-3.2,0-4.8C344.2,324.8,343.5,324.8,343.5,325.3
							L343.5,325.3z"/>
					</g>
				</g>
				<g class="st11">
					<g>
						<path d="M347.6,325.3c0,1.6,0,3.2,0,4.8c0,0.5,0.8,0.5,0.8,0c0-1.6,0-3.2,0-4.8C348.4,324.8,347.6,324.8,347.6,325.3
							L347.6,325.3z"/>
					</g>
				</g>
				<g class="st11">
					<g>
						<path d="M352.1,325.3c0,1.6,0,3.2,0,4.8c0,0.5,0.8,0.5,0.8,0c0-1.6,0-3.2,0-4.8C352.8,324.8,352.1,324.8,352.1,325.3
							L352.1,325.3z"/>
					</g>
				</g>
				<g class="st11">
					<g>
						<path d="M356.2,325.3c0,1.6,0,3.2,0,4.8c0,0.5,0.8,0.5,0.8,0c0-1.6,0-3.2,0-4.8C357,324.8,356.2,324.8,356.2,325.3
							L356.2,325.3z"/>
					</g>
				</g>
				<g class="st11">
					<g>
						<path d="M360.7,325.3c0,1.6,0,3.2,0,4.8c0,0.5,0.8,0.5,0.8,0c0-1.6,0-3.2,0-4.8C361.4,324.8,360.7,324.8,360.7,325.3
							L360.7,325.3z"/>
					</g>
				</g>
				<g class="st11">
					<g>
						<path d="M364.8,325.3c0,1.6,0,3.2,0,4.8c0,0.5,0.8,0.5,0.8,0c0-1.6,0-3.2,0-4.8C365.6,324.8,364.8,324.8,364.8,325.3
							L364.8,325.3z"/>
					</g>
				</g>
				<g class="st11">
					<g>
						<path d="M369.2,325.3c0,1.6,0,3.2,0,4.8c0,0.5,0.8,0.5,0.8,0c0-1.6,0-3.2,0-4.8C370,324.8,369.2,324.8,369.2,325.3
							L369.2,325.3z"/>
					</g>
				</g>
				<g class="st11">
					<g>
						<path d="M373.4,325.3c0,1.6,0,3.2,0,4.8c0,0.5,0.8,0.5,0.8,0c0-1.6,0-3.2,0-4.8C374.1,324.8,373.4,324.8,373.4,325.3
							L373.4,325.3z"/>
					</g>
				</g>
				<g class="st11">
					<g>
						<path d="M377.8,325.3c0,1.6,0,3.2,0,4.8c0,0.5,0.8,0.5,0.8,0c0-1.6,0-3.2,0-4.8C378.6,324.8,377.8,324.8,377.8,325.3
							L377.8,325.3z"/>
					</g>
				</g>
			</g>
		</g>
		<g>
			<g class="st11">
				<g>
					<path d="M337.5,332.3c0,1.6,0,3.2,0,4.8c0,0.5,0.8,0.5,0.8,0c0-1.6,0-3.2,0-4.8C338.3,331.8,337.5,331.8,337.5,332.3
						L337.5,332.3z"/>
				</g>
			</g>
			<g class="st11">
				<g>
					<path d="M341.9,332.3c0,1.6,0,3.2,0,4.8c0,0.5,0.8,0.5,0.8,0c0-1.6,0-3.2,0-4.8C342.7,331.8,341.9,331.8,341.9,332.3
						L341.9,332.3z"/>
				</g>
			</g>
			<g class="st11">
				<g>
					<path d="M346.1,332.3c0,1.6,0,3.2,0,4.8c0,0.5,0.8,0.5,0.8,0c0-1.6,0-3.2,0-4.8C346.8,331.8,346.1,331.8,346.1,332.3
						L346.1,332.3z"/>
				</g>
			</g>
			<g class="st11">
				<g>
					<path d="M350.5,332.3c0,1.6,0,3.2,0,4.8c0,0.5,0.8,0.5,0.8,0c0-1.6,0-3.2,0-4.8C351.3,331.8,350.5,331.8,350.5,332.3
						L350.5,332.3z"/>
				</g>
			</g>
			<g class="st11">
				<g>
					<path d="M354.7,332.3c0,1.6,0,3.2,0,4.8c0,0.5,0.8,0.5,0.8,0c0-1.6,0-3.2,0-4.8C355.4,331.8,354.7,331.8,354.7,332.3
						L354.7,332.3z"/>
				</g>
			</g>
			<g class="st11">
				<g>
					<path d="M359.1,332.3c0,1.6,0,3.2,0,4.8c0,0.5,0.8,0.5,0.8,0c0-1.6,0-3.2,0-4.8C359.8,331.8,359.1,331.8,359.1,332.3
						L359.1,332.3z"/>
				</g>
			</g>
			<g class="st11">
				<g>
					<path d="M363.3,332.3c0,1.6,0,3.2,0,4.8c0,0.5,0.8,0.5,0.8,0c0-1.6,0-3.2,0-4.8C364,331.8,363.3,331.8,363.3,332.3L363.3,332.3
						z"/>
				</g>
			</g>
			<g class="st11">
				<g>
					<path d="M367.7,332.3c0,1.6,0,3.2,0,4.8c0,0.5,0.8,0.5,0.8,0c0-1.6,0-3.2,0-4.8C368.4,331.8,367.7,331.8,367.7,332.3
						L367.7,332.3z"/>
				</g>
			</g>
			<g class="st11">
				<g>
					<path d="M371.8,332.3c0,1.6,0,3.2,0,4.8c0,0.5,0.8,0.5,0.8,0c0-1.6,0-3.2,0-4.8C372.6,331.8,371.8,331.8,371.8,332.3
						L371.8,332.3z"/>
				</g>
			</g>
			<g class="st11">
				<g>
					<path d="M376.3,332.3c0,1.6,0,3.2,0,4.8c0,0.5,0.8,0.5,0.8,0c0-1.6,0-3.2,0-4.8C377,331.8,376.3,331.8,376.3,332.3L376.3,332.3
						z"/>
				</g>
			</g>
		</g>
		<g>
			<g class="st11">
				<g>
					<path d="M341.8,339.4c0,1.6,0,3.2,0,4.8c0,0.5,0.8,0.5,0.8,0c0-1.6,0-3.2,0-4.8C342.5,338.9,341.8,338.9,341.8,339.4
						L341.8,339.4z"/>
				</g>
			</g>
			<g class="st11">
				<g>
					<path d="M346.2,339.4c0,1.6,0,3.2,0,4.8c0,0.5,0.8,0.5,0.8,0c0-1.6,0-3.2,0-4.8C347,338.9,346.2,338.9,346.2,339.4L346.2,339.4
						z"/>
				</g>
			</g>
			<g class="st11">
				<g>
					<path d="M350.4,339.4c0,1.6,0,3.2,0,4.8c0,0.5,0.8,0.5,0.8,0c0-1.6,0-3.2,0-4.8C351.1,338.9,350.4,338.9,350.4,339.4
						L350.4,339.4z"/>
				</g>
			</g>
			<g class="st11">
				<g>
					<path d="M354.8,339.4c0,1.6,0,3.2,0,4.8c0,0.5,0.8,0.5,0.8,0c0-1.6,0-3.2,0-4.8C355.5,338.9,354.8,338.9,354.8,339.4
						L354.8,339.4z"/>
				</g>
			</g>
			<g class="st11">
				<g>
					<path d="M358.9,339.4c0,1.6,0,3.2,0,4.8c0,0.5,0.8,0.5,0.8,0c0-1.6,0-3.2,0-4.8C359.7,338.9,358.9,338.9,358.9,339.4
						L358.9,339.4z"/>
				</g>
			</g>
			<g class="st11">
				<g>
					<path d="M363.4,339.4c0,1.6,0,3.2,0,4.8c0,0.5,0.8,0.5,0.8,0c0-1.6,0-3.2,0-4.8C364.1,338.9,363.4,338.9,363.4,339.4
						L363.4,339.4z"/>
				</g>
			</g>
			<g class="st11">
				<g>
					<path d="M367.5,339.4c0,1.6,0,3.2,0,4.8c0,0.5,0.8,0.5,0.8,0c0-1.6,0-3.2,0-4.8C368.3,338.9,367.5,338.9,367.5,339.4
						L367.5,339.4z"/>
				</g>
			</g>
			<g class="st11">
				<g>
					<path d="M371.9,339.4c0,1.6,0,3.2,0,4.8c0,0.5,0.8,0.5,0.8,0c0-1.6,0-3.2,0-4.8C372.7,338.9,371.9,338.9,371.9,339.4
						L371.9,339.4z"/>
				</g>
			</g>
			<g class="st11">
				<g>
					<path d="M376.1,339.4c0,1.6,0,3.2,0,4.8c0,0.5,0.8,0.5,0.8,0c0-1.6,0-3.2,0-4.8C376.9,338.9,376.1,338.9,376.1,339.4
						L376.1,339.4z"/>
				</g>
			</g>
			<g class="st11">
				<g>
					<path d="M380.5,339.4c0,1.6,0,3.2,0,4.8c0,0.5,0.8,0.5,0.8,0c0-1.6,0-3.2,0-4.8C381.3,338.9,380.5,338.9,380.5,339.4
						L380.5,339.4z"/>
				</g>
			</g>
		</g>
		<g>
			<g class="st11">
				<g>
					<path d="M335.3,346c0,1.6,0,3.2,0,4.8c0,0.5,0.8,0.5,0.8,0c0-1.6,0-3.2,0-4.8C336,345.5,335.3,345.5,335.3,346L335.3,346z"/>
				</g>
			</g>
			<g class="st11">
				<g>
					<path d="M339.7,346c0,1.6,0,3.2,0,4.8c0,0.5,0.8,0.5,0.8,0c0-1.6,0-3.2,0-4.8C340.4,345.5,339.7,345.5,339.7,346L339.7,346z"/>
				</g>
			</g>
			<g class="st11">
				<g>
					<path d="M343.8,346c0,1.6,0,3.2,0,4.8c0,0.5,0.8,0.5,0.8,0c0-1.6,0-3.2,0-4.8C344.6,345.5,343.8,345.5,343.8,346L343.8,346z"/>
				</g>
			</g>
			<g class="st11">
				<g>
					<path d="M348.3,346c0,1.6,0,3.2,0,4.8c0,0.5,0.8,0.5,0.8,0c0-1.6,0-3.2,0-4.8C349,345.5,348.3,345.5,348.3,346L348.3,346z"/>
				</g>
			</g>
			<g class="st11">
				<g>
					<path d="M352.4,346c0,1.6,0,3.2,0,4.8c0,0.5,0.8,0.5,0.8,0c0-1.6,0-3.2,0-4.8C353.2,345.5,352.4,345.5,352.4,346L352.4,346z"/>
				</g>
			</g>
			<g class="st11">
				<g>
					<path d="M356.8,346c0,1.6,0,3.2,0,4.8c0,0.5,0.8,0.5,0.8,0c0-1.6,0-3.2,0-4.8C357.6,345.5,356.8,345.5,356.8,346L356.8,346z"/>
				</g>
			</g>
			<g class="st11">
				<g>
					<path d="M361,346c0,1.6,0,3.2,0,4.8c0,0.5,0.8,0.5,0.8,0c0-1.6,0-3.2,0-4.8C361.8,345.5,361,345.5,361,346L361,346z"/>
				</g>
			</g>
			<g class="st11">
				<g>
					<path d="M365.4,346c0,1.6,0,3.2,0,4.8c0,0.5,0.8,0.5,0.8,0c0-1.6,0-3.2,0-4.8C366.2,345.5,365.4,345.5,365.4,346L365.4,346z"/>
				</g>
			</g>
			<g class="st11">
				<g>
					<path d="M369.6,346c0,1.6,0,3.2,0,4.8c0,0.5,0.8,0.5,0.8,0c0-1.6,0-3.2,0-4.8C370.3,345.5,369.6,345.5,369.6,346L369.6,346z"/>
				</g>
			</g>
			<g class="st11">
				<g>
					<path d="M374,346c0,1.6,0,3.2,0,4.8c0,0.5,0.8,0.5,0.8,0c0-1.6,0-3.2,0-4.8C374.8,345.5,374,345.5,374,346L374,346z"/>
				</g>
			</g>
		</g>
		<g>
			<g class="st11">
				<g>
					<path d="M337.6,352.7c0,1.6,0,3.2,0,4.8c0,0.5,0.8,0.5,0.8,0c0-1.6,0-3.2,0-4.8C338.4,352.2,337.6,352.2,337.6,352.7
						L337.6,352.7z"/>
				</g>
			</g>
			<g class="st11">
				<g>
					<path d="M342.1,352.7c0,1.6,0,3.2,0,4.8c0,0.5,0.8,0.5,0.8,0c0-1.6,0-3.2,0-4.8C342.8,352.2,342.1,352.2,342.1,352.7
						L342.1,352.7z"/>
				</g>
			</g>
			<g class="st11">
				<g>
					<path d="M346.2,352.7c0,1.6,0,3.2,0,4.8c0,0.5,0.8,0.5,0.8,0c0-1.6,0-3.2,0-4.8C347,352.2,346.2,352.2,346.2,352.7L346.2,352.7
						z"/>
				</g>
			</g>
			<g class="st11">
				<g>
					<path d="M350.6,352.7c0,1.6,0,3.2,0,4.8c0,0.5,0.8,0.5,0.8,0c0-1.6,0-3.2,0-4.8C351.4,352.2,350.6,352.2,350.6,352.7
						L350.6,352.7z"/>
				</g>
			</g>
			<g class="st11">
				<g>
					<path d="M354.8,352.7c0,1.6,0,3.2,0,4.8c0,0.5,0.8,0.5,0.8,0c0-1.6,0-3.2,0-4.8C355.5,352.2,354.8,352.2,354.8,352.7
						L354.8,352.7z"/>
				</g>
			</g>
			<g class="st11">
				<g>
					<path d="M359.2,352.7c0,1.6,0,3.2,0,4.8c0,0.5,0.8,0.5,0.8,0c0-1.6,0-3.2,0-4.8C360,352.2,359.2,352.2,359.2,352.7L359.2,352.7
						z"/>
				</g>
			</g>
			<g class="st11">
				<g>
					<path d="M363.4,352.7c0,1.6,0,3.2,0,4.8c0,0.5,0.8,0.5,0.8,0c0-1.6,0-3.2,0-4.8C364.1,352.2,363.4,352.2,363.4,352.7
						L363.4,352.7z"/>
				</g>
			</g>
			<g class="st11">
				<g>
					<path d="M367.8,352.7c0,1.6,0,3.2,0,4.8c0,0.5,0.8,0.5,0.8,0c0-1.6,0-3.2,0-4.8C368.5,352.2,367.8,352.2,367.8,352.7
						L367.8,352.7z"/>
				</g>
			</g>
			<g class="st11">
				<g>
					<path d="M371.9,352.7c0,1.6,0,3.2,0,4.8c0,0.5,0.8,0.5,0.8,0c0-1.6,0-3.2,0-4.8C372.7,352.2,371.9,352.2,371.9,352.7
						L371.9,352.7z"/>
				</g>
			</g>
			<g class="st11">
				<g>
					<path d="M376.4,352.7c0,1.6,0,3.2,0,4.8c0,0.5,0.8,0.5,0.8,0c0-1.6,0-3.2,0-4.8C377.1,352.2,376.4,352.2,376.4,352.7
						L376.4,352.7z"/>
				</g>
			</g>
		</g>
	</g>
	<g>
		<path class="st6" d="M450.9,370.6h-43.5c-1.9,0-3.5-1.5-3.5-3.5l0,0c0-1.9,1.5-3.5,3.5-3.5h43.5c1.9,0,3.5,1.5,3.5,3.5l0,0
			C454.3,369,452.8,370.6,450.9,370.6z"/>
		<path class="st6" d="M447.6,384.1h-43.5c-1.9,0-3.5-1.5-3.5-3.5l0,0c0-1.9,1.5-3.5,3.5-3.5h43.5c1.9,0,3.5,1.5,3.5,3.5l0,0
			C451.1,382.6,449.5,384.1,447.6,384.1z"/>
		<g>
			<path class="st6" d="M446.8,377.3h-43.5c-1.9,0-3.5-1.5-3.5-3.5v0c0-1.9,1.5-3.5,3.5-3.5h43.5c1.9,0,3.5,1.5,3.5,3.5v0
				C450.2,375.8,448.7,377.3,446.8,377.3z"/>
			<path class="st13" d="M446.8,377.3h-43.5c-1.9,0-3.5-1.5-3.5-3.5v0c0-1.9,1.5-3.5,3.5-3.5h43.5c1.9,0,3.5,1.5,3.5,3.5v0
				C450.2,375.8,448.7,377.3,446.8,377.3z"/>
		</g>
		<g>
			<g class="st11">
				<g>
					<path d="M410.9,364.9c0,1.6,0,3.2,0,4.8c0,0.5,0.8,0.5,0.8,0c0-1.6,0-3.2,0-4.8C411.7,364.4,410.9,364.4,410.9,364.9
						L410.9,364.9z"/>
				</g>
			</g>
			<g class="st11">
				<g>
					<path d="M415.3,364.9c0,1.6,0,3.2,0,4.8c0,0.5,0.8,0.5,0.8,0c0-1.6,0-3.2,0-4.8C416.1,364.4,415.3,364.4,415.3,364.9
						L415.3,364.9z"/>
				</g>
			</g>
			<g class="st11">
				<g>
					<path d="M419.5,364.9c0,1.6,0,3.2,0,4.8c0,0.5,0.8,0.5,0.8,0c0-1.6,0-3.2,0-4.8C420.2,364.4,419.5,364.4,419.5,364.9
						L419.5,364.9z"/>
				</g>
			</g>
			<g class="st11">
				<g>
					<path d="M423.9,364.9c0,1.6,0,3.2,0,4.8c0,0.5,0.8,0.5,0.8,0c0-1.6,0-3.2,0-4.8C424.7,364.4,423.9,364.4,423.9,364.9
						L423.9,364.9z"/>
				</g>
			</g>
			<g class="st11">
				<g>
					<path d="M428.1,364.9c0,1.6,0,3.2,0,4.8c0,0.5,0.8,0.5,0.8,0c0-1.6,0-3.2,0-4.8C428.8,364.4,428.1,364.4,428.1,364.9
						L428.1,364.9z"/>
				</g>
			</g>
			<g class="st11">
				<g>
					<path d="M432.5,364.9c0,1.6,0,3.2,0,4.8c0,0.5,0.8,0.5,0.8,0c0-1.6,0-3.2,0-4.8C433.2,364.4,432.5,364.4,432.5,364.9
						L432.5,364.9z"/>
				</g>
			</g>
			<g class="st11">
				<g>
					<path d="M436.6,364.9c0,1.6,0,3.2,0,4.8c0,0.5,0.8,0.5,0.8,0c0-1.6,0-3.2,0-4.8C437.4,364.4,436.6,364.4,436.6,364.9
						L436.6,364.9z"/>
				</g>
			</g>
			<g class="st11">
				<g>
					<path d="M441.1,364.9c0,1.6,0,3.2,0,4.8c0,0.5,0.8,0.5,0.8,0c0-1.6,0-3.2,0-4.8C441.8,364.4,441.1,364.4,441.1,364.9
						L441.1,364.9z"/>
				</g>
			</g>
			<g class="st11">
				<g>
					<path d="M445.2,364.9c0,1.6,0,3.2,0,4.8c0,0.5,0.8,0.5,0.8,0c0-1.6,0-3.2,0-4.8C446,364.4,445.2,364.4,445.2,364.9L445.2,364.9
						z"/>
				</g>
			</g>
			<g class="st11">
				<g>
					<path d="M449.7,364.9c0,1.6,0,3.2,0,4.8c0,0.5,0.8,0.5,0.8,0c0-1.6,0-3.2,0-4.8C450.4,364.4,449.7,364.4,449.7,364.9
						L449.7,364.9z"/>
				</g>
			</g>
		</g>
		<g>
			<g class="st11">
				<g>
					<path d="M404.4,371.5c0,1.6,0,3.2,0,4.8c0,0.5,0.8,0.5,0.8,0c0-1.6,0-3.2,0-4.8C405.1,371,404.4,371,404.4,371.5L404.4,371.5z"
						/>
				</g>
			</g>
			<g class="st11">
				<g>
					<path d="M408.8,371.5c0,1.6,0,3.2,0,4.8c0,0.5,0.8,0.5,0.8,0c0-1.6,0-3.2,0-4.8C409.6,371,408.8,371,408.8,371.5L408.8,371.5z"
						/>
				</g>
			</g>
			<g class="st11">
				<g>
					<path d="M413,371.5c0,1.6,0,3.2,0,4.8c0,0.5,0.8,0.5,0.8,0c0-1.6,0-3.2,0-4.8C413.7,371,413,371,413,371.5L413,371.5z"/>
				</g>
			</g>
			<g class="st11">
				<g>
					<path d="M417.4,371.5c0,1.6,0,3.2,0,4.8c0,0.5,0.8,0.5,0.8,0c0-1.6,0-3.2,0-4.8C418.1,371,417.4,371,417.4,371.5L417.4,371.5z"
						/>
				</g>
			</g>
			<g class="st11">
				<g>
					<path d="M421.5,371.5c0,1.6,0,3.2,0,4.8c0,0.5,0.8,0.5,0.8,0c0-1.6,0-3.2,0-4.8C422.3,371,421.5,371,421.5,371.5L421.5,371.5z"
						/>
				</g>
			</g>
			<g class="st11">
				<g>
					<path d="M426,371.5c0,1.6,0,3.2,0,4.8c0,0.5,0.8,0.5,0.8,0c0-1.6,0-3.2,0-4.8C426.7,371,426,371,426,371.5L426,371.5z"/>
				</g>
			</g>
			<g class="st11">
				<g>
					<path d="M430.1,371.5c0,1.6,0,3.2,0,4.8c0,0.5,0.8,0.5,0.8,0c0-1.6,0-3.2,0-4.8C430.9,371,430.1,371,430.1,371.5L430.1,371.5z"
						/>
				</g>
			</g>
			<g class="st11">
				<g>
					<path d="M434.6,371.5c0,1.6,0,3.2,0,4.8c0,0.5,0.8,0.5,0.8,0c0-1.6,0-3.2,0-4.8C435.3,371,434.6,371,434.6,371.5L434.6,371.5z"
						/>
				</g>
			</g>
			<g class="st11">
				<g>
					<path d="M438.7,371.5c0,1.6,0,3.2,0,4.8c0,0.5,0.8,0.5,0.8,0c0-1.6,0-3.2,0-4.8C439.5,371,438.7,371,438.7,371.5L438.7,371.5z"
						/>
				</g>
			</g>
			<g class="st11">
				<g>
					<path d="M443.1,371.5c0,1.6,0,3.2,0,4.8c0,0.5,0.8,0.5,0.8,0c0-1.6,0-3.2,0-4.8C443.9,371,443.1,371,443.1,371.5L443.1,371.5z"
						/>
				</g>
			</g>
		</g>
		<g>
			<g class="st11">
				<g>
					<path d="M406.8,378.2c0,1.6,0,3.2,0,4.8c0,0.5,0.8,0.5,0.8,0c0-1.6,0-3.2,0-4.8C407.5,377.8,406.8,377.8,406.8,378.2
						L406.8,378.2z"/>
				</g>
			</g>
			<g class="st11">
				<g>
					<path d="M411.2,378.2c0,1.6,0,3.2,0,4.8c0,0.5,0.8,0.5,0.8,0c0-1.6,0-3.2,0-4.8C411.9,377.8,411.2,377.8,411.2,378.2
						L411.2,378.2z"/>
				</g>
			</g>
			<g class="st11">
				<g>
					<path d="M415.3,378.2c0,1.6,0,3.2,0,4.8c0,0.5,0.8,0.5,0.8,0c0-1.6,0-3.2,0-4.8C416.1,377.8,415.3,377.8,415.3,378.2
						L415.3,378.2z"/>
				</g>
			</g>
			<g class="st11">
				<g>
					<path d="M419.8,378.2c0,1.6,0,3.2,0,4.8c0,0.5,0.8,0.5,0.8,0c0-1.6,0-3.2,0-4.8C420.5,377.8,419.8,377.8,419.8,378.2
						L419.8,378.2z"/>
				</g>
			</g>
			<g class="st11">
				<g>
					<path d="M423.9,378.2c0,1.6,0,3.2,0,4.8c0,0.5,0.8,0.5,0.8,0c0-1.6,0-3.2,0-4.8C424.7,377.8,423.9,377.8,423.9,378.2
						L423.9,378.2z"/>
				</g>
			</g>
			<g class="st11">
				<g>
					<path d="M428.3,378.2c0,1.6,0,3.2,0,4.8c0,0.5,0.8,0.5,0.8,0c0-1.6,0-3.2,0-4.8C429.1,377.8,428.3,377.8,428.3,378.2
						L428.3,378.2z"/>
				</g>
			</g>
			<g class="st11">
				<g>
					<path d="M432.5,378.2c0,1.6,0,3.2,0,4.8c0,0.5,0.8,0.5,0.8,0c0-1.6,0-3.2,0-4.8C433.2,377.8,432.5,377.8,432.5,378.2
						L432.5,378.2z"/>
				</g>
			</g>
			<g class="st11">
				<g>
					<path d="M436.9,378.2c0,1.6,0,3.2,0,4.8c0,0.5,0.8,0.5,0.8,0c0-1.6,0-3.2,0-4.8C437.7,377.8,436.9,377.8,436.9,378.2
						L436.9,378.2z"/>
				</g>
			</g>
			<g class="st11">
				<g>
					<path d="M441.1,378.2c0,1.6,0,3.2,0,4.8c0,0.5,0.8,0.5,0.8,0c0-1.6,0-3.2,0-4.8C441.8,377.8,441.1,377.8,441.1,378.2
						L441.1,378.2z"/>
				</g>
			</g>
			<g class="st11">
				<g>
					<path d="M445.5,378.2c0,1.6,0,3.2,0,4.8c0,0.5,0.8,0.5,0.8,0c0-1.6,0-3.2,0-4.8C446.3,377.8,445.5,377.8,445.5,378.2
						L445.5,378.2z"/>
				</g>
			</g>
		</g>
	</g>
</g>
<g id="Piggy_bank">
	<g>
		<path class="st6" d="M58.2,295.3c-2.6-3.7-6.4-6.7-10.9-7.2c-1-0.1-2.3,0-2.8,0.9c-0.3,0.5-0.2,1.2-0.2,1.8c0.7,6,1.4,12,2.1,17.9
			l17.3-1.2C62.3,303.3,60.8,299,58.2,295.3z"/>
		<path class="st14" d="M58.2,295.3c-2.6-3.7-6.4-6.7-10.9-7.2c-1-0.1-2.3,0-2.8,0.9c-0.3,0.5-0.2,1.2-0.2,1.8
			c0.7,6,1.4,12,2.1,17.9l17.3-1.2C62.3,303.3,60.8,299,58.2,295.3z"/>
		<path class="st6" d="M38.9,320.9c0,0,10-33,47.6-34.5c37.6-1.4,67.5,8.5,68.6,41.9c1.1,33.3-18.2,39.9-18.2,39.9l-0.6,17.4h-19.1
			v-10.3c0,0-25.1,1.1-34.5-1.7v14.8H62.3L62,368.5c0,0-15.1-7.4-19.9-20.2H31.5c-3.6-10.6-4.8-21-1.6-27.6L38.9,320.9z"/>
		<path class="st13" d="M38.9,320.9c0,0,10-33,47.6-34.5c37.6-1.4,67.5,8.5,68.6,41.9c1.1,33.3-18.2,39.9-18.2,39.9l-0.6,17.4h-19.1
			v-10.3c0,0-25.1,1.1-34.5-1.7v14.8H62.3L62,368.5c0,0-15.1-7.4-19.9-20.2H31.5c-3.6-10.6-4.8-21-1.6-27.6L38.9,320.9z"/>
		<path class="st6" d="M72.3,288.1c-2.6-3.7-6.4-6.7-10.9-7.2c-1-0.1-2.3,0-2.8,0.9c-0.3,0.5-0.2,1.2-0.2,1.8c0.7,6,1.4,12,2.1,17.9
			l17.3-1.2C76.4,296.1,74.9,291.8,72.3,288.1z"/>
		<path class="st13" d="M72.3,288.1c-2.6-3.7-6.4-6.7-10.9-7.2c-1-0.1-2.3,0-2.8,0.9c-0.3,0.5-0.2,1.2-0.2,1.8
			c0.7,6,1.4,12,2.1,17.9l17.3-1.2C76.4,296.1,74.9,291.8,72.3,288.1z"/>
		<g>
			<path class="st15" d="M91.9,294.8c7.6-0.8,15.3-0.2,22.6,1.9c1.3,0.4,1.9-1.7,0.6-2c-7.5-2.1-15.4-2.7-23.2-1.9
				C90.6,292.8,90.6,294.9,91.9,294.8L91.9,294.8z"/>
		</g>
		<g>
			<path class="st15" d="M56.3,317.4c0.1,0.9,0.2,1.8,0.2,2.8c0,0.5,0,0.9-0.1,1.4c0,0.1,0,0.2,0,0.3c0,0.2,0-0.1,0,0.2
				c0,0.3-0.1,0.5-0.1,0.8c-0.1,0.5,0.1,1.2,0.7,1.3c0.5,0.1,1.2-0.2,1.3-0.7c0.4-2,0.4-3.9,0.2-5.9c0-0.3-0.1-0.5-0.3-0.7
				c-0.2-0.2-0.5-0.3-0.7-0.3C56.9,316.4,56.3,316.8,56.3,317.4L56.3,317.4z"/>
		</g>
		<g>
			<path class="st6" d="M155.7,327.9c1.9-3.1,6.3-2.9,8.8-0.7c2.7,2.4,4.4,7.6,2.8,11c-0.9,1.8-3.3,2.9-4.7,1
				c-1.3-1.8-0.6-4.3,0.1-6.2c1.3-3.5,3.6-6.9,7.1-8.4c3.5-1.5,8.1-0.7,10.1,2.7c0.7,1.2,2.5,0.1,1.8-1.1c-2.4-4-7.7-5.4-12-3.9
				c-4.9,1.7-8.2,6.6-9.6,11.4c-0.7,2.5-0.7,5.4,1.3,7.3c1.8,1.7,4.4,1.5,6.2,0c4-3.4,2.2-10.7-0.6-14.3c-3.2-4-10.2-4.9-13.2,0
				C153.1,328,155,329.1,155.7,327.9L155.7,327.9z"/>
		</g>
		<g>
			<path class="st15" d="M29.8,322.2c3.8,7.4,4.8,16,2.8,24.1c-0.3,1.3,1.7,1.9,2,0.6c2.1-8.7,1-17.8-3-25.8
				C31.1,320,29.2,321,29.8,322.2L29.8,322.2z"/>
		</g>
	</g>
</g>
<g id="Banknotes">
	<g>
		<g>
			<g>
				<path class="st6" d="M177.3,163l-4.3-2.8c0,0,0.4-33.3-0.1-41.9c-0.5-8.6-4.8-39.8-4.8-39.8l4.4-2.2L177.3,163z"/>
				<path class="st16" d="M177.3,163l-4.3-2.8c0,0,0.4-33.3-0.1-41.9c-0.5-8.6-4.8-39.8-4.8-39.8l4.4-2.2L177.3,163z"/>
			</g>
			<g>
				<g>
					
						<rect x="174.8" y="75" transform="matrix(0.9985 -5.559159e-02 5.559159e-02 0.9985 -6.2833 11.068)" class="st6" width="42" height="86.9"/>
					<g class="st11">
						<path class="st17" d="M203.4,117.1l2.5-0.1l0.1,1.8l-2.5,0.1c0,2.2-0.6,4.3-1.6,5.5l-2.3-0.9c0.9-1.3,1.4-2.9,1.4-4.5
							l-4.4,0.2c-0.5,2.5-1.1,5.2-4.2,5.3c-2.2,0.1-4.3-1.4-4.8-4.8l-2.5,0.1l-0.1-1.8l2.4-0.1c0-1.6,0.4-3.2,1.1-4.6l2.3,0.8
							c-0.6,1.1-0.9,2.4-1,3.6l4.5-0.3c0.5-2.5,1.1-5.2,4.1-5.4C200.8,112.1,202.9,113.6,203.4,117.1z M194.1,119.4l-3.9,0.2
							c0.3,1.5,1.2,2.2,2.1,2.1C193.2,121.7,193.8,120.7,194.1,119.4L194.1,119.4z M199,115c-1.1,0.1-1.5,1.1-1.8,2.4l3.9-0.2
							C200.7,115.6,199.9,115,199,115L199,115z"/>
					</g>
					<path class="st12" d="M216.4,153.1l-4-71.6c-2.7,0.1-4.9-1.9-5.1-4.6c0,0,0,0,0,0l-27.5,1.5c0.1,2.7-1.9,4.9-4.6,5.1
						c0,0,0,0,0,0l4,71.6c2.7-0.1,4.9,1.9,5.1,4.6c0,0,0,0,0,0l27.5-1.5C211.7,155.6,213.7,153.3,216.4,153.1
						C216.4,153.1,216.4,153.1,216.4,153.1z M180.3,93.4c-0.6,0-1.1-0.4-1.2-1l-0.3-4.8c0-0.6,0.4-1.1,1-1.2l0,0
						c0.6,0,1.1,0.4,1.2,1l0.3,4.8C181.4,92.9,180.9,93.4,180.3,93.4z M196.3,131.6c-7.3,0.4-13.6-5.2-14-12.6
						c-0.4-7.3,5.2-13.6,12.6-14c7.3-0.4,13.6,5.2,14,12.6c0,0,0,0,0,0C209.3,124.9,203.7,131.2,196.3,131.6
						C196.3,131.6,196.3,131.6,196.3,131.6z M211.7,150.4c-0.6,0-1.1-0.4-1.2-1l-0.3-4.8c-0.1-0.6,0.4-1.2,1-1.2
						c0.6-0.1,1.2,0.4,1.2,1c0,0,0,0.1,0,0.1l0.3,4.8C212.8,149.8,212.4,150.3,211.7,150.4C211.8,150.4,211.7,150.4,211.7,150.4
						L211.7,150.4z"/>
				</g>
			</g>
		</g>
		<g>
			<g>
				<path class="st6" d="M173.6,171.8l-5.2-0.2c0,0-16.8-28.7-21.8-35.8c-4.9-7.1-24.6-31.6-24.6-31.6l2.6-4.2L173.6,171.8z"/>
				<path class="st16" d="M173.6,171.8l-5.2-0.2c0,0-16.8-28.7-21.8-35.8c-4.9-7.1-24.6-31.6-24.6-31.6l2.6-4.2L173.6,171.8z"/>
			</g>
			<g>
				<g>
					
						<rect x="145.5" y="80.6" transform="matrix(0.8264 -0.563 0.563 0.8264 -40.965 115.2416)" class="st6" width="42" height="86.9"/>
					<g class="st11">
						<path class="st17" d="M172.3,118.9l2-1.4l1,1.5l-2,1.4c1.1,1.9,1.7,4,1.5,5.5l-2.4,0.4c0.1-1.6-0.3-3.2-1.1-4.6l-3.7,2.5
							c0.9,2.4,1.7,5-0.8,6.7c-1.9,1.3-4.4,1-6.6-1.6l-2,1.4l-1-1.5l2-1.4c-0.8-1.4-1.3-2.9-1.4-4.5l2.4-0.5c0.1,1.3,0.4,2.5,1,3.6
							l3.7-2.5c-0.9-2.4-1.8-5,0.8-6.7C167.5,116,170,116.3,172.3,118.9z M165.4,125.7l-3.3,2.2c1.1,1.2,2.1,1.3,2.9,0.7
							C165.9,128.1,165.9,127,165.4,125.7L165.4,125.7z M167.3,119.4c-0.9,0.6-0.8,1.7-0.3,3l3.2-2.2
							C169.2,119.1,168.1,118.9,167.3,119.4L167.3,119.4z"/>
					</g>
					<path class="st12" d="M202,143.1l-40.3-59.2c-2.2,1.5-5.2,0.9-6.7-1.3c0,0,0,0,0,0l-22.8,15.5c1.5,2.2,0.9,5.2-1.3,6.7
						c0,0,0,0,0,0l40.3,59.2c2.2-1.5,5.2-0.9,6.7,1.3c0,0,0,0,0,0l22.8-15.5C199.2,147.6,199.8,144.6,202,143.1
						C202,143.1,202,143.1,202,143.1z M140.2,110.6c-0.5,0.3-1.2,0.2-1.5-0.3l-2.7-4c-0.3-0.5-0.2-1.2,0.3-1.5l0,0
						c0.5-0.3,1.2-0.2,1.5,0.3l2.7,4C140.9,109.6,140.8,110.2,140.2,110.6z M173.7,135c-6.1,4.1-14.4,2.6-18.5-3.5
						c-4.1-6.1-2.6-14.4,3.5-18.5c6.1-4.1,14.4-2.6,18.5,3.5c0,0,0,0,0,0C181.3,122.6,179.7,130.9,173.7,135
						C173.7,135,173.7,135,173.7,135z M196.6,143.2c-0.5,0.3-1.2,0.2-1.5-0.3l-2.7-4c-0.4-0.5-0.3-1.2,0.2-1.5
						c0.5-0.4,1.2-0.3,1.5,0.2c0,0,0,0.1,0.1,0.1l2.7,4C197.2,142.1,197.1,142.8,196.6,143.2C196.6,143.2,196.6,143.2,196.6,143.2
						L196.6,143.2z"/>
				</g>
			</g>
		</g>
		<g>
			<g>
				<path class="st6" d="M163.2,185.2l-4.9,1.7c0,0-26.1-20.7-33.2-25.5c-7.2-4.9-34.4-20.6-34.4-20.6l0.9-4.8L163.2,185.2z"/>
				<path class="st16" d="M163.2,185.2l-4.9,1.7c0,0-26.1-20.7-33.2-25.5c-7.2-4.9-34.4-20.6-34.4-20.6l0.9-4.8L163.2,185.2z"/>
			</g>
			<g>
				<g>
					
						<rect x="118.3" y="99.9" transform="matrix(0.5667 -0.824 0.824 0.5667 -57.7352 176.9048)" class="st6" width="42" height="86.9"/>
					<g class="st11">
						<path class="st17" d="M142.9,136.4l1.4-2l1.5,1l-1.4,2c1.7,1.3,3,3.1,3.4,4.6l-2.1,1.3c-0.5-1.5-1.4-2.9-2.7-3.9l-2.5,3.7
							c1.7,1.9,3.4,4,1.7,6.6c-1.3,1.9-3.7,2.5-6.8,0.9l-1.4,2l-1.5-1l1.4-2c-1.3-1-2.3-2.2-2.9-3.7l2-1.3c0.5,1.2,1.3,2.2,2.3,3
							l2.5-3.7c-1.7-1.9-3.5-4-1.7-6.6C137.3,135.4,139.8,134.8,142.9,136.4z M139,145.3l-2.2,3.2c1.4,0.7,2.4,0.4,3-0.4
							C140.3,147.3,139.8,146.3,139,145.3L139,145.3z M138.5,138.7c-0.6,0.9-0.1,1.9,0.8,2.9l2.2-3.2
							C140,137.7,139,137.9,138.5,138.7L138.5,138.7z"/>
					</g>
					<path class="st12" d="M179.3,148.2l-59-40.6c-1.5,2.2-4.5,2.8-6.7,1.2c0,0,0,0,0,0L98,131.6c2.2,1.5,2.8,4.5,1.2,6.7
						c0,0,0,0,0,0l59.1,40.6c1.5-2.2,4.5-2.8,6.7-1.2c0,0,0,0,0,0l15.6-22.7C178.4,153.5,177.8,150.4,179.3,148.2
						C179.3,148.2,179.3,148.2,179.3,148.2z M110,140.3c-0.3,0.5-1,0.6-1.5,0.3l-4-2.7c-0.5-0.3-0.6-1-0.3-1.5l0,0
						c0.3-0.5,1-0.6,1.5-0.3l4,2.7C110.2,139.1,110.4,139.8,110,140.3z M150,151c-4.2,6.1-12.5,7.6-18.5,3.4
						c-6.1-4.2-7.6-12.5-3.4-18.5c4.2-6.1,12.5-7.6,18.5-3.4c0,0,0,0,0,0C152.7,136.6,154.2,144.9,150,151C150,151,150,151,150,151z
						 M174.3,150.2c-0.3,0.5-1,0.6-1.5,0.3l-4-2.7c-0.5-0.3-0.7-1-0.3-1.5c0.3-0.5,1-0.7,1.5-0.3c0,0,0.1,0,0.1,0.1l4,2.7
						C174.5,149,174.7,149.7,174.3,150.2C174.3,150.2,174.3,150.2,174.3,150.2L174.3,150.2z"/>
				</g>
			</g>
		</g>
	</g>
</g>
<g id="Bank">
	<g>
		<g>
			<g>
				<g>
					<g>
						<g>
							<path class="st6" d="M251,197.7H104.5c-4.6,0-6.6-5.8-3-8.6l69.2-53.9l77.3-60.2c1.7-1.4,4.2-1.4,5.9,0l77.3,60.2l69.2,53.9
								c3.6,2.8,1.6,8.6-3,8.6H251z"/>
						</g>
						<g>
							<rect x="133" y="197.7" class="st6" width="28" height="162.4"/>
						</g>
						<g>
							<rect x="196.4" y="197.7" class="st6" width="28" height="162.4"/>
						</g>
						<g>
							<rect x="282.3" y="197.7" class="st6" width="28" height="162.4"/>
						</g>
						<g>
							<rect x="344.7" y="197.7" class="st6" width="28" height="162.4"/>
						</g>
						<g>
							<path class="st6" d="M394.1,215H108c-0.3,0-0.6-0.3-0.6-0.6v-16.1c0-0.3,0.3-0.6,0.6-0.6h286.1c0.3,0,0.6,0.3,0.6,0.6v16.1
								C394.7,214.8,394.4,215,394.1,215z"/>
						</g>
						<rect x="124.1" y="354.1" class="st6" width="45.7" height="7.5"/>
						<rect x="187.6" y="354.1" class="st6" width="45.7" height="7.5"/>
						<rect x="273.5" y="354.1" class="st6" width="45.7" height="7.5"/>
						<rect x="335.8" y="354.1" class="st6" width="45.7" height="7.5"/>
					</g>
				</g>
				<g class="st3">
					<g>
						<g>
							<path class="st17" d="M251,197.7H104.5c-4.6,0-6.6-5.8-3-8.6l69.2-53.9l77.3-60.2c1.7-1.4,4.2-1.4,5.9,0l77.3,60.2l69.2,53.9
								c3.6,2.8,1.6,8.6-3,8.6H251z"/>
							<path class="st18" d="M140,179.1l107.9-84c1.9-1.5,4.5-1.5,6.3,0l109.6,85.4c0.6,0.5,0.3,1.4-0.5,1.4H141
								C139.5,181.9,138.8,180,140,179.1z"/>
						</g>
						<g>
							<rect x="133" y="197.7" class="st17" width="28" height="162.4"/>
						</g>
						<g>
							<rect x="196.4" y="197.7" class="st17" width="28" height="162.4"/>
						</g>
						<g>
							<rect x="282.3" y="197.7" class="st17" width="28" height="162.4"/>
						</g>
						<g>
							<rect x="344.7" y="197.7" class="st17" width="28" height="162.4"/>
						</g>
						<g>
							<path class="st17" d="M394.1,215H108c-0.3,0-0.6-0.3-0.6-0.6v-16.1c0-0.3,0.3-0.6,0.6-0.6h286.1c0.3,0,0.6,0.3,0.6,0.6v16.1
								C394.7,214.8,394.4,215,394.1,215z"/>
						</g>
						<rect x="124.1" y="354.1" class="st17" width="45.7" height="7.5"/>
						<rect x="187.6" y="354.1" class="st17" width="45.7" height="7.5"/>
						<rect x="273.5" y="354.1" class="st17" width="45.7" height="7.5"/>
						<rect x="335.8" y="354.1" class="st17" width="45.7" height="7.5"/>
					</g>
				</g>
				<rect x="107.4" y="197.7" class="st19" width="287.3" height="7.1"/>
				<rect x="127.9" y="215" class="st6" width="39" height="7.5"/>
				<rect x="191.2" y="215" class="st6" width="39" height="7.5"/>
				<rect x="276.8" y="215" class="st6" width="39" height="7.5"/>
				<rect x="339.1" y="215" class="st6" width="39" height="7.5"/>
				<rect x="276.8" y="215" class="st20" width="39" height="7.5"/>
				<rect x="339.1" y="215" class="st20" width="39" height="7.5"/>
				<rect x="127.9" y="215" class="st20" width="39" height="7.5"/>
				<rect x="191.2" y="215" class="st20" width="39" height="7.5"/>
				<rect x="127.9" y="215" class="st19" width="39" height="2.2"/>
				<path class="st21" d="M128.2,222.5c12.9,0,25.8,0,38.7,0"/>
				<rect x="191.1" y="215" class="st19" width="39" height="2.2"/>
				<path class="st21" d="M191.4,222.5c12.9,0,25.8,0,38.7,0"/>
				<rect x="276.8" y="215" class="st19" width="39" height="2.2"/>
				<path class="st21" d="M277.1,222.5c12.9,0,25.8,0,38.7,0"/>
				<rect x="339.1" y="215" class="st19" width="39" height="2.2"/>
				<path class="st21" d="M339.4,222.5c12.9,0,25.8,0,38.7,0"/>
				<g>
					
						<rect x="124.1" y="357.7" transform="matrix(-1 -1.224647e-16 1.224647e-16 -1 293.9845 717.5884)" class="st19" width="45.7" height="2.2"/>
					<path class="st21" d="M169.6,354.1c-15.1,0-30.3,0-45.4,0"/>
				</g>
				<g>
					
						<rect x="188.3" y="357.7" transform="matrix(-1 -1.224647e-16 1.224647e-16 -1 422.3662 717.5884)" class="st19" width="45.7" height="2.2"/>
					<path class="st21" d="M233.8,354.1c-15.1,0-30.3,0-45.4,0"/>
				</g>
				<g>
					
						<rect x="273.5" y="357.7" transform="matrix(-1 -1.224647e-16 1.224647e-16 -1 592.664 717.5884)" class="st19" width="45.7" height="2.2"/>
					<path class="st21" d="M318.9,354.1c-15.1,0-30.3,0-45.4,0"/>
				</g>
				<g>
					
						<rect x="335.8" y="357.7" transform="matrix(-1 -1.224647e-16 1.224647e-16 -1 717.2875 717.5884)" class="st19" width="45.7" height="2.2"/>
					<path class="st21" d="M381.2,354.1c-15.1,0-30.3,0-45.4,0"/>
				</g>
				<g>
					<polygon class="st6" points="408,390.9 92,390.9 99.9,360.1 398.2,360.1 					"/>
				</g>
				<g class="st3">
					<polygon class="st17" points="408,390.9 92,390.9 99.9,360.1 398.2,360.1 					"/>
				</g>
				<polygon class="st19" points="96.2,374 402.5,374 404.4,379.6 94.7,379.6 				"/>
			</g>
			<g>
				<path class="st19" d="M139.1,349.3L139.1,349.3c-1.2,0-2.1-0.9-2.1-2.1v-113c0-1.2,0.9-2.1,2.1-2.1l0,0c1.2,0,2.1,0.9,2.1,2.1
					v113C141.1,348.4,140.2,349.3,139.1,349.3z"/>
				<path class="st19" d="M147.1,349.3L147.1,349.3c-1.2,0-2.1-0.9-2.1-2.1v-113c0-1.2,0.9-2.1,2.1-2.1l0,0c1.2,0,2.1,0.9,2.1,2.1
					v113C149.2,348.4,148.3,349.3,147.1,349.3z"/>
				<path class="st19" d="M155.2,349.3L155.2,349.3c-1.2,0-2.1-0.9-2.1-2.1v-113c0-1.2,0.9-2.1,2.1-2.1l0,0c1.2,0,2.1,0.9,2.1,2.1
					v113C157.3,348.4,156.4,349.3,155.2,349.3z"/>
			</g>
			<g>
				<path class="st19" d="M202.2,349.3L202.2,349.3c-1.2,0-2.1-0.9-2.1-2.1v-113c0-1.2,0.9-2.1,2.1-2.1l0,0c1.2,0,2.1,0.9,2.1,2.1
					v113C204.3,348.4,203.4,349.3,202.2,349.3z"/>
				<path class="st19" d="M210.3,349.3L210.3,349.3c-1.2,0-2.1-0.9-2.1-2.1v-113c0-1.2,0.9-2.1,2.1-2.1l0,0c1.2,0,2.1,0.9,2.1,2.1
					v113C212.4,348.4,211.5,349.3,210.3,349.3z"/>
				<path class="st19" d="M218.4,349.3L218.4,349.3c-1.2,0-2.1-0.9-2.1-2.1v-113c0-1.2,0.9-2.1,2.1-2.1l0,0c1.2,0,2.1,0.9,2.1,2.1
					v113C220.5,348.4,219.5,349.3,218.4,349.3z"/>
			</g>
			<g>
				<path class="st19" d="M288.3,349.3L288.3,349.3c-1.2,0-2.1-0.9-2.1-2.1v-113c0-1.2,0.9-2.1,2.1-2.1l0,0c1.2,0,2.1,0.9,2.1,2.1
					v113C290.3,348.4,289.4,349.3,288.3,349.3z"/>
				<path class="st19" d="M296.3,349.3L296.3,349.3c-1.2,0-2.1-0.9-2.1-2.1v-113c0-1.2,0.9-2.1,2.1-2.1l0,0c1.2,0,2.1,0.9,2.1,2.1
					v113C298.4,348.4,297.5,349.3,296.3,349.3z"/>
				<path class="st19" d="M304.4,349.3L304.4,349.3c-1.2,0-2.1-0.9-2.1-2.1v-113c0-1.2,0.9-2.1,2.1-2.1l0,0c1.2,0,2.1,0.9,2.1,2.1
					v113C306.5,348.4,305.6,349.3,304.4,349.3z"/>
			</g>
			<g>
				<path class="st19" d="M350.7,349.3L350.7,349.3c-1.2,0-2.1-0.9-2.1-2.1v-113c0-1.2,0.9-2.1,2.1-2.1l0,0c1.2,0,2.1,0.9,2.1,2.1
					v113C352.8,348.4,351.9,349.3,350.7,349.3z"/>
				<path class="st19" d="M358.8,349.3L358.8,349.3c-1.2,0-2.1-0.9-2.1-2.1v-113c0-1.2,0.9-2.1,2.1-2.1l0,0c1.2,0,2.1,0.9,2.1,2.1
					v113C360.9,348.4,359.9,349.3,358.8,349.3z"/>
				<path class="st19" d="M366.8,349.3L366.8,349.3c-1.2,0-2.1-0.9-2.1-2.1v-113c0-1.2,0.9-2.1,2.1-2.1l0,0c1.2,0,2.1,0.9,2.1,2.1
					v113C368.9,348.4,368,349.3,366.8,349.3z"/>
			</g>
			<path class="st21" d="M107.9,198.4c96.8,0,192.9-0.3,289.7-0.3"/>
		</g>
		<g class="st9">
			<path d="M255.5,161.9l0,4.1l-3,0l0-4.1c-3.6-0.2-7.1-1.4-9-3.1l1.6-3.7c2.2,1.6,4.7,2.6,7.4,2.8l0-7.4c-4.1-1-8.5-2.3-8.5-7.5
				c0-3.8,2.7-7.1,8.5-7.6l0-4.1l3,0l0,4.1c2.7,0.1,5.2,0.9,7.5,2.3l-1.5,3.7c-1.8-1.1-3.9-1.7-6-2l0,7.5c4.1,1,8.6,2.3,8.6,7.4
				C264.1,158,261.3,161.3,255.5,161.9z M252.5,146.1l0-6.6c-2.6,0.4-3.7,1.7-3.7,3.4C248.7,144.5,250.3,145.5,252.5,146.1
				L252.5,146.1z M259.4,154.6c0-1.8-1.6-2.7-3.8-3.3l0,6.5C258.2,157.5,259.3,156.2,259.4,154.6L259.4,154.6z"/>
		</g>
	</g>
</g>
<g id="Screen">
	<g>
		<g>
			<g>
				<path class="st6" d="M429.5,251.6c0,4.9,0,9.8,0,14.7c0,0.9,0,1.9,0,2.8c0,1.1,0.2,2.5-1.1,2.8c-0.7,0.2-1.6,0.1-2.3,0.1
					c-1.4,0-2.7,0-4.1,0c-2.6,0-5.1,0-7.7,0c-0.5,0-0.5,0.8,0,0.8c2.4,0,4.7,0,7.1,0c2.2,0,4.6,0.2,6.8,0c2.5-0.2,2.1-3,2.1-4.9
					c0-3,0-6.1,0-9.1c0-2.4,0-4.7,0-7.1C430.2,251.1,429.5,251.1,429.5,251.6L429.5,251.6z"/>
			</g>
		</g>
		<path class="st6" d="M415.4,272.4c0,0.7-0.5,1.2-1.2,1.2c-0.7,0-1.2-0.5-1.2-1.2c0-0.7,0.5-1.2,1.2-1.2
			C414.9,271.2,415.4,271.7,415.4,272.4z"/>
		<g>
			<path class="st6" d="M447.7,251.6h-40.2c-1.6,0-2.9-1.3-2.9-2.9v-37.6c0-1.6,1.3-2.9,2.9-2.9h40.2c1.6,0,2.9,1.3,2.9,2.9v37.6
				C450.6,250.3,449.3,251.6,447.7,251.6z"/>
			<path class="st10" d="M447.7,251.6h-40.2c-1.6,0-2.9-1.3-2.9-2.9v-37.6c0-1.6,1.3-2.9,2.9-2.9h40.2c1.6,0,2.9,1.3,2.9,2.9v37.6
				C450.6,250.3,449.3,251.6,447.7,251.6z"/>
		</g>
		<rect x="413.1" y="235.8" class="st6" width="7.2" height="9.7"/>
		<rect x="424" y="230.7" class="st6" width="7.2" height="14.7"/>
		<rect x="435" y="224.5" class="st6" width="7.2" height="20.9"/>
		<g>
			<path class="st6" d="M428.4,226.1l0,1.7l-1.2,0l0-1.6c-1.5-0.1-2.9-0.6-3.6-1.2l0.7-1.5c0.9,0.6,1.9,1,3,1.1l0-3
				c-1.6-0.4-3.4-0.9-3.4-3c0-1.5,1.1-2.8,3.4-3l0-1.6l1.2,0l0,1.6c1.1,0,2.1,0.4,3,0.9l-0.6,1.5c-0.7-0.4-1.6-0.7-2.4-0.8l0,3
				c1.6,0.4,3.4,0.9,3.4,3C431.8,224.5,430.7,225.9,428.4,226.1z M427.2,219.8l0-2.6c-1,0.2-1.5,0.7-1.5,1.3
				C425.7,219.1,426.3,219.5,427.2,219.8L427.2,219.8z M429.9,223.2c0-0.7-0.7-1.1-1.5-1.3l0,2.6
				C429.4,224.3,429.9,223.8,429.9,223.2L429.9,223.2z"/>
		</g>
		<path class="st13" d="M438.6,208.2c0,0,3.7,6-1.3,11.6c-5,5.6-9.6,11.3-17,14.6c-7.3,3.3-16.1,5.5-16.1,5.5l0.4,8.8
			c0,0,14.5-6.7,20.5-9.3c6-2.6,11.6-6.8,14.8-14.9c3.2-8.1,8.3-16.3,8.3-16.3L438.6,208.2z"/>
	</g>
</g>
<g id="Character_2">
	<g>
		<path class="st15" d="M390,262.3c-0.1,0.1-0.2,0.3-0.3,0.4c2.7,2.7-0.7,5.3-1.7,5.7c-0.7,0.3-1.5,0.5-2.3,0.5
			c-3.8,0.3-6.6-2-8.2-3.2c-2.2-1.7-1.5-6.5-2.6-9.2c-1.4-3.5-3.4-12.1,0.1-17.8c1.7-2.7,3-3.7,3-3.7c1.7-1.3,4-1.2,5.9-0.3
			c1.9,0.9,3.4,2.5,4.7,4.3c2.3,3.1,3.8,6.7,4.4,10.5c0.5,3.6-0.7,4.6-1.8,6.7c0,0,0,0,0,0.1C391.5,258.4,391.2,260.7,390,262.3z"/>
		<path class="st15" d="M383.2,268.1c0,0-5.3-0.6-10.8-0.6c-3.2,0-2.3-3.5-6.1-0.8c-1.4-2.5-0.7-5.7,0.8-8.1c0.3-0.5,0.7-1,1.1-1.4
			c0.3-0.3,0.7-0.6,1.1-0.9c0.2-0.1,0.4-0.3,0.6-0.4c0.6-0.3,1.2-0.5,1.8-0.7c1.1-0.3,2.2-0.3,3.2-0.1c1.5,0.3,3,1,4.2,2l0,0l0,0
			c0.6,0.5,1.1,1,1.6,1.6c0.2,0.3,0.5,0.6,0.7,0.9c0.3,0.4,0.5,0.8,0.7,1.3c0,0,0,0.1,0,0.1l0,0c0.5,1.4,0.7,2.9,0.6,4.5
			C382.7,266.4,383.4,267.3,383.2,268.1z"/>
		<path class="st22" d="M380.2,274.5c-1.1,1.2-2.1,0.8-3.6,0.2c-8.9-3.2-6.3-7.5-6.3-7.5c1.7-2,1.8-4.4,1.1-8c0-0.1,0-0.2,0-0.3
			c0-0.5,0.2-1,0.4-1.3c0.7-1.1,2.2-1.4,3.3-0.6c0,0,0,0,0,0l4,1.1l0,0c0,0.1,0,0.1,0,0.2c0,2,0,3.5,0,4.7c0,0.1,0,0.3,0,0.4l0,0
			c0,0.1,0,0.3,0,0.4c0.1,1.7,2.9,4.1,4,4.7C384,268.9,384,270.6,380.2,274.5z"/>
		<path class="st23" d="M379.2,258.1L379.2,258.1c0,0.1,0,0.1,0,0.2c0,2,0,3.5,0,4.7c0,0.1,0,0.3,0,0.4l0,0c0,0.2,0,0.3,0.1,0.5l0,0
			c-3-0.8-5.7-2.6-7.8-5l0,0c0-0.5,0.1-0.9,0.4-1.3c0.7-1.1,2.2-1.4,3.3-0.7L379.2,258.1z"/>
		<path class="st22" d="M370.5,245.2c-0.7,6.6-1.1,9.4,1.6,13.3c4,5.9,12.1,5.5,14.7-0.7c2.3-5.6,3-15.4-2.8-19.2
			C378.2,234.8,371.2,238.6,370.5,245.2z"/>
		<path class="st15" d="M377.8,246.7c-1.8,0.7-3.3,1.9-4.5,3.5l-0.2,0.2c-0.3,0.3-0.5,0.7-0.8,1.1c-0.4,0.6-0.8,1.3-1.1,2
			c-0.2,0.4-0.3,0.7-0.5,1.1c-0.1,0.4-0.3,0.9-0.5,1.4c0,0.2-0.1,0.3-0.1,0.5c-0.7,2.8-0.6,5.7,0.2,8.4c0,0,0,0,0,0.1l-0.1-0.1
			c-0.4,3.4-2,1.4-2,1.4s-4.9,1.2-6.8,1.7c-6.7,1.9-8-4.4-4.7-8.6c0.3-0.4,2.1-1.8,2.2-1.9c-1.6-0.2-2.8-1.7-2.6-3.3
			c0-0.4,0.2-0.7,0.3-1c0.9-2,2.6-3.5,4.3-4.8c0.3-0.2,0.6-0.4,0.9-0.6c-0.2,0.1-0.4,0.1-0.7,0l0,0c-0.9-0.1-1.7-0.7-2-1.6
			c-0.9-3.3,4.8-1.2,10-10.9c2-3.7,5.7-2.1,9.1-0.9l0.2,0.1c3.6,1.3,5.5,3.1,5.8,5.1C385,242.2,382.5,245,377.8,246.7z"/>
		<path class="st15" d="M372.9,245.7c1.2,0.8,0.3,7-2.9,6.3C366.9,251.4,368.8,242.9,372.9,245.7z"/>
		<path class="st22" d="M366.9,250.5c0.5,1.5,1.6,2.6,2.7,3.1c1.6,0.8,3.1-1.8,2.9-3.6c-0.2-1.7-1.7-3.1-3.4-3.1
			C367.3,246.9,366.3,248.8,366.9,250.5z"/>
		<path class="st24" d="M370.6,250.6c0-0.6-0.2-1.3-0.7-1.7c-0.4-0.5-1.1-0.7-1.7-0.7"/>
		<path class="st15" d="M374.6,236.5c-1,2.1-2.9,1.7-4.3,3.5c-1.4,1.8-2.5,4.3-1.4,6.3c0.4,0.5,0.7,1.1,1.1,1.7
			c0.7,1.7-0.6,3.5-0.8,5.3c-0.2,1.7-0.6,3.6,0.7,4.7c1,0.9,1.6,2.2,1.4,3.6c0,0.4-1.7,3.1-1.8,3.6c-0.2,0.6,1.8-1.1,2.4-0.9
			c0.4,0.1,0.9,0,1.2-0.4c0-0.1,0.1-0.1,0.1-0.2c1.3-1.9,1.7-4.3,1-6.5c-0.4-1.3-0.8-2.5-1.2-3.7c-0.4-1.2-0.5-2.6-0.2-3.9
			c0.9-2.9,8.7-8.6,3.8-14.6c-0.1-0.1-0.2-0.1-0.3-0.2c-0.5,0-0.9,0.2-1.2,0.6C374.9,235.6,374.8,236,374.6,236.5z"/>
		<g>
			<g>
				<path class="st15" d="M378.7,249.1c-0.1,0.7,0.1,1.3,0.6,1.4c0.4,0.1,0.9-0.4,1-1.1c0.1-0.7-0.1-1.3-0.6-1.4
					S378.8,248.4,378.7,249.1z"/>
				<path class="st15" d="M385.1,250.5c-0.1,0.7,0.1,1.3,0.6,1.4c0.4,0.1,0.9-0.4,1-1c0.1-0.7-0.1-1.3-0.6-1.4
					C385.7,249.3,385.3,249.8,385.1,250.5z"/>
				<path class="st15" d="M377.9,246.4c0.1,0,0.2,0,0.2,0c1.2-0.7,2.3-0.2,2.3-0.1c0.2,0.1,0.3,0,0.4-0.1c0.1-0.2,0-0.4-0.2-0.5
					c-0.1,0-1.4-0.7-2.9,0.2c-0.1,0.1-0.2,0.3-0.1,0.5C377.7,246.3,377.8,246.4,377.9,246.4z"/>
				<path class="st15" d="M388,247.6c0.1,0,0.1,0,0.2-0.1c0.1-0.1,0.1-0.3-0.1-0.5c-1.3-1.2-2.6-0.8-2.6-0.7
					c-0.1,0.1-0.2,0.2-0.2,0.4c0.1,0.2,0.2,0.3,0.4,0.2c0,0,1-0.3,2.1,0.6C387.9,247.6,387.9,247.6,388,247.6z"/>
				<path class="st25" d="M383.5,249.8c0,0,0.5,2.7,1.3,4.4c0.1,0.3-0.1,0.7-0.4,0.7c-0.9,0.1-1.8-0.3-1.8-0.3L383.5,249.8z"/>
			</g>
			<path class="st15" d="M379.4,248l1.6,0C381,248,380,248.9,379.4,248z"/>
			<path class="st15" d="M386,249.4l1.6,0C387.5,249.4,386.5,250.3,386,249.4z"/>
		</g>
		<path class="st6" d="M387.7,267.7c3.5,1.7,6.1,4.7,7.3,8.3c2.2,6.5,3.4,16.6,3.4,16.6l10.8-10l6.8,5.5c0,0-15.9,21-17.8,21.5
			c-5.7,1.5-8.9-11.6-8.9-11.6l-2-30.5L387.7,267.7z"/>
		<path class="st6" d="M357.1,450.2l0.7,1l1.5-0.6l0.9,4.6l6.2,8.7c0,0,2.4,0.4,0.5-4.6c-0.1-0.2-0.2-0.5-0.2-0.7
			c-0.6-3,0.7-8.6,0.7-8.6l-3.4-4.8c0,0-0.4,0-1,0.1C361.7,445.4,358.8,446.1,357.1,450.2z"/>
		<path class="st9" d="M357.1,450.2l0.7,1l1.5-0.6l0.9,4.6l6.2,8.7c0,0,2.4,0.4,0.5-4.6c-0.1-0.2-0.2-0.5-0.2-0.7
			c-0.6-3,0.7-8.6,0.7-8.6l-3.4-4.8c0,0-0.4,0-1,0.1C361.7,445.4,358.8,446.1,357.1,450.2z"/>
		<path class="st25" d="M363.1,445.2C363.1,445.2,363.1,445.2,363.1,445.2c1.1,0.1,0.1,5.2,0.6,8.1c0.4,2.6,1.5,5,3.1,5.2
			c-0.6-3,1.4-9.7,1.4-9.7l-2.8-3.8C365.5,445,363.7,445.1,363.1,445.2z"/>
		<path class="st6" d="M366.7,463.5l1.3,0l0.4-1.6l4.2,1.9h10.7c0,0,1.7-1.7-3.4-3.1c-0.2-0.1-0.5-0.2-0.7-0.3
			c-2.7-1.3-6.6-5.6-6.6-5.6h-5.8c0,0-0.2,0.3-0.5,0.8C365.5,457,364.4,459.7,366.7,463.5z"/>
		<path class="st22" d="M366.2,455.7C366.2,455.7,366.2,455.7,366.2,455.7c0.8-0.8,4.3,3,6.9,4.3c2.3,1.2,4.9,1.7,6,0.5
			c-2.7-1.3-7-7.2-7-7.2l-4.7,0.1C367.4,453.5,366.4,455.2,366.2,455.7z"/>
		<path class="st15" d="M376.4,404.2c2.9-8,6.5-15.9,10.7-22.2c-17.4-50-16.9-72.4-16.9-72.4l21,0l2.2,8.4c0,0,5.2,20.8,6.8,32.8
			l4.4,26.6v0.1c0.3,5.5-0.9,11-3.5,15.9c-2.9,5.3-7.9,11.6-10.7,17.3c-3.6,7.5-7.1,15.1-10,21.9c-3.1,7.1-5.6,13.4-7.2,17.7
			c-1.5,0.2-6-2.5-7.3-5C365.9,445.2,369.1,424.3,376.4,404.2z"/>
		<path class="st9" d="M382.2,367.2c-2.6-8.5-5.4-13.3-6.7-19.7c0-1.5,4.9-7.8,7.4-10.3C382.9,337.2,385.9,349.2,382.2,367.2z"/>
		<path class="st9" d="M380.3,432.4c-3.1,7.1-5.6,13.4-7.2,17.7c-1.5,0.2-6-2.5-7.3-5c0,0,3.2-20.9,10.5-40.9
			C377.8,412.5,379.5,423,380.3,432.4z"/>
		<path class="st15" d="M385.9,310.1c0,0-8,55.2-8.9,67.7c0,0-4.9,60.3-4.1,75.5l-11,0.5c0,0-7.4-45.7-3.7-75
			c0.3-3.8-3.1-28.8-3.6-38.7c-1.3-23.9,8.4-30.5,8.4-30.5L385.9,310.1z"/>
		<polygon class="st9" points="371.9,310.9 370.2,338.4 354.5,336.5 354.5,333.7 		"/>
		<path class="st17" d="M364.3,311.6c-0.6-7-3.1-19.7-7.3-33.1c-1.4-4.4,1-9.3,1-9.3s5.8-0.1,6.4-0.2c0.6-0.1,1.3-0.1,2-0.2
			c5-0.4,9-0.7,13.5-0.5c1.1,0.1,2.3,0.2,3.4,0.3c0.4,0,2.7,0.1,3.1,0.1c0,0,6.4,7.5,6.7,12.7c0.2,2.9,1.6,4.2,1.4,11.2
			c0,4.8-3.5,11.7-3.8,18.5L364.3,311.6z"/>
		<path class="st6" d="M369.3,336.1l-18.5-1.9l11.7-32.8c0,0-1-0.3-2.6-6.6c-0.8-3.1-1.7-6.3-2.4-9.2c-1-4.2-1.8-7.6-1.9-8.7
			c-0.2-3.5,4.1-9.1,4.1-9.1l10.8-1.3c0,0,2.1,7.5,2.5,21.7C373.5,302.5,369.3,336.1,369.3,336.1z"/>
		<path class="st6" d="M379.8,265.7c0,0,9.3,11.2,11.6,19.3c1.5,5.3-1.5,20.6-1.1,24.7c0.6,6.7,3.5,14.9,7.3,26.8l2.5-0.4l-7-26.5
			c0,0,3.2-20,2.4-25c-0.9-5-8.3-17.1-8.3-17.1l-3.4-0.2L379.8,265.7z"/>
		<path class="st6" d="M370.2,264.9c0,0,4.2,8.2,2.6,29l-6.9-14.9l2.5-4.1l-3.3-6.7c0,0,3.6-2.3,5.1-3.5L370.2,264.9z"/>
		<path class="st9" d="M361.2,293.1c-0.3,0.8-0.8,1.3-1.3,1.7c-0.8-3.1-1.7-6.3-2.4-9.2c1.9-2.3,3.5-4.2,3.5-4.2
			S363.1,288.2,361.2,293.1z"/>
		<path class="st6" d="M360,267.8c-4.1-0.2-13.5,19.4-17.2,29c-1.1,2.8,1.3,6.5,3.4,7c4.7,1.3,28.3,2.6,28.3,2.6l0.9-7l-20.1-4.2
			l6.4-9.7c0,0,2.4-4.9,2-9.4C363.3,271.5,360,267.8,360,267.8z"/>
		<path class="st15" d="M382,256.3c-0.6,0.5-1.5,1.7-1.5,1.7c-0.1-0.1-0.2-0.1-0.4-0.2c-1.6-0.9-2-1.8-2-2.6c0-0.4,0.1-0.8,0.3-1.1
			c0.2-0.3,0.4-0.5,0.4-0.5c0.6,1,2,1.9,2.7,2.4C381.8,256.2,382,256.3,382,256.3z"/>
		<path class="st17" d="M381.5,256l-0.5,0.5c-1.5-0.8-2.4-1.6-2.6-2.3c0.2-0.3,0.4-0.5,0.4-0.5C379.3,254.6,380.7,255.5,381.5,256z"
			/>
		<path class="st26" d="M380.3,257.5c-1.6-0.9-2.1-1.9-2.1-2.6c0.5,0.3,1.2,0.8,1.6,1.4C380.2,256.6,380.3,257.1,380.3,257.5z"/>
		<path class="st11" d="M370.2,264.9c0,0,4.2,8.2,2.6,29l-6.9-14.9l2.5-4.1l-3.3-6.7c0,0,3.6-2.3,5.1-3.5L370.2,264.9z"/>
		<path class="st9" d="M355.4,295.2c0,0-3-0.5-4.9,1.1c0,0,2-3.3,5.7-2.4L355.4,295.2z"/>
		<path class="st6" d="M391.6,294c0,0,1.6-4.6,1.3-8.8c-0.3-4.2-0.4-7.4-0.4-7.4l-4.8-3.5l0.6-4.3c0,0-2.3-1.4-4.5-2.9
			c-1.5-1-4.3-2.5-4.7-2.4c0,0,12.2,15.5,12.3,21.8C391.6,292.7,391.6,294,391.6,294z"/>
		<path class="st11" d="M391.6,294c0,0,1.6-4.6,1.3-8.8c-0.3-4.2-0.4-7.4-0.4-7.4l-4.8-3.5l0.6-4.3c0,0-2.3-1.4-4.5-2.9
			c-1.5-1-4.3-2.5-4.7-2.4c0,0,12.2,15.5,12.3,21.8C391.6,292.7,391.6,294,391.6,294z"/>
		<path class="st11" d="M393.5,307.6l1.6-15.6v17.3C395.2,309.3,394.1,308.4,393.5,307.6z"/>
		<polygon class="st9" points="372.3,306.3 361.1,305.5 360.4,307.4 372.1,308.8 		"/>
		<path class="st17" d="M382.3,268.9l-3.3-4.5l-1.6,2.7l-4.7-3.5l-2.6,1.2l2.3,6.8c0,0,5.8,2.4,6.1,2.4
			C378.8,273.9,382.3,268.9,382.3,268.9z"/>
		<polygon class="st11" points="382.5,269.1 381.1,272.4 377.8,269.1 375.5,273 372.1,271.3 375.7,274.2 377.8,269.9 381.6,273.5 		
			"/>
		<path class="st22" d="M381.6,297.8l-6.7,1.7l-0.8,5c0.6,3.2,7,0.8,7,0.8l1.4,0.8c1.2,0.6,3.9-0.1,4.2-1.3l0.2-3.1
			c0.1-0.6-0.8-1.8-1.4-2.2l-2.1-1.5C382.9,297.8,382.2,297.7,381.6,297.8z"/>
		<g>
			<path class="st6" d="M407.1,289.5c-0.8-0.3-1.2-1.3-0.9-2.1l4.7-12.7c0.4-0.9,1.4-1.5,2.3-1.2l4.5,1.2c0.1,0,0.1,0,0.2,0.1
				c0.8,0.3,1.2,1.3,0.9,2.1l-4.7,12.7c-0.4,0.9-1.4,1.4-2.3,1.2l-4.5-1.2C407.3,289.5,407.2,289.5,407.1,289.5z"/>
			<path class="st15" d="M407.7,289.6c-0.8-0.3-1.2-1.3-0.9-2.1l4.7-12.7c0.4-0.9,1.4-1.5,2.4-1.2l4.5,1.2c0.1,0,0.1,0,0.2,0.1
				c0.8,0.3,1.2,1.3,0.9,2.1l-4.7,12.7c-0.4,0.9-1.4,1.5-2.3,1.2l-4.5-1.2C407.8,289.7,407.7,289.6,407.7,289.6z"/>
			<path class="st12" d="M417.9,275.6C417.9,275.6,418,275.6,417.9,275.6c0.6,0.2,0.8,0.8,0.6,1.3c-0.2,0.5-0.8,0.8-1.4,0.7
				c0,0-0.1,0-0.1,0c-0.5-0.2-0.7-0.7-0.5-1.2C416.7,275.7,417.3,275.4,417.9,275.6z"/>
			<path class="st16" d="M417.7,276.1C417.7,276.1,417.7,276.1,417.7,276.1c0.3,0.1,0.4,0.3,0.3,0.6c-0.1,0.2-0.4,0.4-0.6,0.3
				c0,0,0,0,0,0c-0.2-0.1-0.3-0.3-0.3-0.6C417.2,276.2,417.4,276.1,417.7,276.1z"/>
		</g>
		<g>
			<g>
				<g>
					<path class="st22" d="M418,280.8c0,0-5.6-0.2-6.6,0.6c-1,0.8,0.7,1.6,0.7,1.6s-2-0.7-2.4,0.1c-0.5,1,1.3,1.7,1.3,1.7
						s-1.6-0.5-1.9,0.2c-0.3,0.8,1.7,1.8,1.7,1.8s-1.2-0.1-1.1,0.5c0.1,0.6,4.3,2.8,5.9,2.6c1.6-0.2,4.3-5.7,4.6-7
						c0.3-1.3,0.3-2.1-1.5-3.6L418,280.8L418,280.8z"/>
				</g>
				<g>
					<path class="st9" d="M412.1,283.1C412.1,283.1,412.1,283.1,412.1,283.1l3.5,1c0,0,0.1,0,0.1-0.1c0-0.1,0-0.1-0.1-0.1l-3.5-1
						c0,0-0.1,0-0.1,0.1C412,283,412.1,283,412.1,283.1z"/>
				</g>
				<g>
					<path class="st9" d="M411.2,284.9C411.2,284.9,411.2,284.9,411.2,284.9l3.3,1.3c0,0,0.1,0,0.1-0.1c0-0.1,0-0.1,0-0.1l-3.3-1.3
						c0,0-0.1,0-0.1,0.1C411.1,284.8,411.1,284.9,411.2,284.9z"/>
				</g>
				<g>
					<path class="st9" d="M410.9,286.9l2.4,1c0,0,0.1,0,0.1-0.1c0-0.1,0-0.1,0-0.1l-2.4-1c0,0-0.1,0-0.1,0.1
						S410.9,286.9,410.9,286.9z"/>
				</g>
			</g>
		</g>
	</g>
</g>
<g id="Characters_1">
	<g>
		<path class="st27" d="M204.5,297.2l-5.2-0.9l0.3,7.4c0,0,1.8,0.7,5.7-1.7L204.5,297.2z"/>
		<polygon class="st27" points="193.2,298.7 194.1,303.2 199.7,303.6 199.4,296.2 		"/>
		<g>
			<g>
				<polygon class="st27" points="278.6,442.7 271.7,442.3 273.9,458 280.8,458.4 				"/>
				<path class="st15" d="M272,455.2l2.6-0.4c0.6-0.1,1.2,0.1,1.6,0.5c1.8,1.7,2.8,0.8,4.1-1.2c1-0.3,1.5,0.8,1.6,1.1l3.1,6.3
					c0.3,0.5,0,1.2-0.5,1.4c-0.1,0-0.2,0.1-0.3,0.1c-3.1,0.5-4.6,0.7-8.4,1.2l-11.8,1.7c-3.2,0.5-4.5-2.5-3.2-3
					c5.7-2.1,9.7-4.4,11.2-6.3C272.1,456.3,271.8,456.1,272,455.2z"/>
				<path class="st6" d="M268.6,458c0.8-0.1,1.6-0.4,2.3-0.6c0.1,0,0.1-0.1,0.1-0.2c0,0-0.1-0.1-0.1-0.1c-0.4-0.1-3.8-1.1-4.5-0.4
					c-0.1,0.1-0.2,0.3-0.1,0.5c0.1,0.3,0.3,0.6,0.6,0.7C267.3,458.1,268,458.1,268.6,458z M270.4,457.2c-0.9,0.3-2.6,0.8-3.4,0.4
					c-0.2-0.1-0.4-0.3-0.4-0.5c0-0.1,0-0.1,0.1-0.2C266.9,456.5,268.9,456.9,270.4,457.2z"/>
				<path class="st6" d="M270.9,457.4c0,0,0.1,0,0.1,0c0,0,0-0.1,0-0.1c0-0.1-1.3-3-3-2.6c-0.4,0.1-0.5,0.3-0.5,0.5
					C267.5,456,269.8,457.2,270.9,457.4L270.9,457.4z M268.2,454.9c1.1-0.2,2.1,1.5,2.4,2.1c-1.1-0.4-2.8-1.4-2.8-1.9
					c0,0,0-0.2,0.3-0.2L268.2,454.9z"/>
				<path class="st28" d="M270.5,457.3c0.9,0,1.8,0.4,2.4,1"/>
				<path class="st28" d="M269.2,458.7c0.9,0,1.8,0.4,2.4,1"/>
				<path class="st28" d="M267.3,459.9c0.9,0,1.8,0.4,2.4,1"/>
			</g>
			<g>
				<polygon class="st27" points="251.6,442.8 244.7,442.4 246.9,458.1 253.8,458.6 				"/>
				<path class="st15" d="M245,455.3l2.6-0.4c0.6-0.1,1.2,0.1,1.6,0.5c1.8,1.7,2.8,0.8,4.1-1.2c1-0.3,1.5,0.8,1.6,1.1l3.1,6.3
					c0.3,0.5,0,1.2-0.5,1.4c-0.1,0-0.2,0.1-0.3,0.1c-3.1,0.5-4.6,0.7-8.4,1.2l-11.8,1.7c-3.2,0.5-4.5-2.5-3.2-3
					c5.7-2.1,9.7-4.4,11.2-6.3C245.2,456.4,244.8,456.2,245,455.3z"/>
				<path class="st6" d="M241.6,458.1c0.8-0.1,1.6-0.4,2.3-0.6c0.1,0,0.1-0.1,0.1-0.2c0,0-0.1-0.1-0.1-0.1c-0.4-0.1-3.8-1.1-4.5-0.4
					c-0.1,0.1-0.2,0.3-0.1,0.5c0.1,0.3,0.3,0.6,0.6,0.7C240.4,458.2,241,458.3,241.6,458.1z M243.4,457.4c-0.9,0.3-2.6,0.8-3.4,0.4
					c-0.2-0.1-0.4-0.3-0.4-0.5c0-0.1,0-0.1,0.1-0.2C240,456.6,242,457,243.4,457.4z"/>
				<path class="st6" d="M243.9,457.5c0,0,0.1,0,0.1,0c0,0,0-0.1,0-0.1c0-0.1-1.3-3-3-2.6c-0.4,0.1-0.5,0.3-0.5,0.5
					C240.5,456.1,242.8,457.3,243.9,457.5L243.9,457.5z M241.2,455c1.1-0.2,2.1,1.5,2.4,2.1c-1.1-0.4-2.8-1.4-2.8-1.9
					c0,0,0-0.2,0.3-0.2L241.2,455z"/>
				<path class="st28" d="M243.6,457.4c0.9,0,1.8,0.4,2.4,1"/>
				<path class="st28" d="M242.2,458.8c0.9,0,1.8,0.4,2.4,1"/>
				<path class="st28" d="M240.4,460c0.9,0,1.8,0.4,2.4,1"/>
			</g>
			<path class="st27" d="M243,267.9l-8.6-2.5c0,0-8.7,20.7-11.7,22.1c-4,1.8-14.7,7.5-19.3,10.2c-0.3,1-0.3,3.8,0.2,4.6
				c7.4-0.6,22.7-5.6,25.6-8.4C236,287.4,243,267.9,243,267.9z"/>
			<path class="st6" d="M245.6,264c2.4,5.4-14.3,29.2-14.3,29.2l-8.1-8.4c0,0,7.2-18,11-24.9C238.2,252.8,243,258.1,245.6,264z"/>
			<path class="st29" d="M245.6,264c2.4,5.4-14.3,29.2-14.3,29.2l-8.1-8.4c0,0,7.2-18,11-24.9C238.2,252.8,243,258.1,245.6,264z"/>
			<path class="st6" d="M222.6,284.1c-0.5,0.3-1.6,2.3-1.8,3.3c-0.2,1,5.5,8.6,7.7,8.3s4.8-2.5,5.2-3.6
				C234.1,290.8,223.7,283.4,222.6,284.1z"/>
			<path class="st6" d="M236.7,256.8c0,0-5.8,23.6-5.1,60.3h40.6c0.5-5.5-5.8-34.9,0.7-60.6c-3.9-0.8-6.8-1.3-10.7-1.5
				c-5-0.3-10.1-0.3-15.1,0C243.5,255.3,240.1,255.9,236.7,256.8z"/>
			<g>
				<path class="st6" d="M256.6,313.4c0,0-0.9,7.9-1.9,18.6c-1.3,12.1-2.8,27.8-3.8,39.8c0,0.1,0,0.1,0,0.2
					c-0.2,2.3-0.4,4.4-0.5,6.3c-1.4,19.5,3.2,71.6,3.2,71.6h-12.4c0,0-10.1-53.2-9.8-73.1c0.2-19.1,1.4-64.8,1.4-64.8L256.6,313.4z"
					/>
				<path class="st23" d="M254.7,331.9c-1.3,12.1-2.8,27.8-3.8,39.8c0,0.1,0,0.1,0,0.2c-2.3-10.9-3-25.2-2.2-48.7L254.7,331.9z"/>
				<path class="st6" d="M246.5,313.4c0,0,4.9,45.3,7.9,63.2c3.3,19.6,16.5,73.8,16.5,73.8l13.2-0.7c0,0-9.5-51.8-11-71.3
					c-1.6-21.1-2.1-65-2.1-65H246.5z"/>
			</g>
			<path class="st11" d="M236.7,256.8c0,0-5.8,23.6-5.1,60.3h40.6c0.5-5.5-5.8-34.9,0.7-60.6c-3.9-0.8-6.8-1.3-10.7-1.5
				c-5-0.3-10.1-0.3-15.1,0C243.5,255.3,240.1,255.9,236.7,256.8z"/>
			<path class="st23" d="M265.2,262.3c-0.7,4,2.3,14.4,5.5,25.4c0.4-9.5-0.6-19.7,1.5-29v0C270,258.4,265.9,258.6,265.2,262.3z"/>
			<g>
				<g>
					<g>
						<g>
							<path class="st27" d="M259.3,255.4c0,0-0.1-4.4,3.4-11.6c0,0-0.4-0.3-0.4-0.3c0.5-1,1-1.9,1.4-2.7c0,0,0,0,0,0l-11.4,4.7
								c-0.2,2.5-1.8,7-2.7,8.9c0,0-1.9,3.4,2.8,4.3C256,259.3,259.3,255.4,259.3,255.4z"/>
							<path class="st9" d="M251.6,248.8l6.2-0.3c-0.9,1.8-2.9,3.7-7,3.2C250.8,251.6,251.5,249.6,251.6,248.8z"/>
						</g>
						<g>
							<path class="st15" d="M247.3,225.5c-1.6,2.2-2,8.2,2,7.8C253.3,232.8,250,221.7,247.3,225.5z"/>
							<path class="st27" d="M264.7,235.7c-1.8,6.4-2.7,10.1-6.7,12.7c-6,3.9-13.3-0.7-13.5-7.5c-0.1-6.2,2.8-15.7,9.8-16.8
								C261.2,222.9,266.5,229.3,264.7,235.7z"/>
							<path class="st15" d="M269.3,227.4c-1.3-6.1-11.3-5.1-14.2-3.8c-0.4,0.2,4.3,4,4,3.8l2.3,1.4c0.4,0,1.1,0.6,1.2,1.9
								c0,0-2.4,6.7-0.2,10.2c3.1-0.7,3.7-1.7,4.9-3.9C269.3,233.8,270,230.3,269.3,227.4z"/>
							<path class="st27" d="M266.1,241.7c-0.9,1.6-2.4,2.6-3.8,2.9c-2.2,0.6-3.2-1.4-2.6-3.4c0.6-1.8,2.4-4.3,4.5-3.9
								C266.3,237.6,267.1,239.9,266.1,241.7z"/>
							<path class="st15" d="M255,235.6c-0.1,0.7-0.6,1.1-1,1c-0.4-0.1-0.7-0.7-0.5-1.4c0.1-0.7,0.6-1.1,1-1
								C254.9,234.3,255.1,234.9,255,235.6z"/>
							<path class="st15" d="M248.4,234.3c-0.1,0.7-0.6,1.1-1,1c-0.4-0.1-0.7-0.7-0.5-1.4c0.1-0.7,0.6-1.1,1-1
								C248.3,233,248.5,233.7,248.4,234.3z"/>
							<path class="st30" d="M250.6,234.4c0,0-2.8,2.9-3.8,4.1c0.8,1,2.4,1,2.4,1L250.6,234.4z"/>
							<path class="st15" d="M257.3,232.8c-0.1,0-0.2,0-0.3-0.1c-0.9-1.1-2.1-1-2.1-1c-0.2,0-0.3-0.1-0.4-0.3c0-0.2,0.1-0.3,0.3-0.4
								c0.1,0,1.5-0.2,2.7,1.2c0.1,0.1,0.1,0.3,0,0.4C257.4,232.8,257.3,232.8,257.3,232.8z"/>
						</g>
						<path class="st24" d="M265,239.6c-0.2-0.4-0.7-0.7-1.2-0.7c-0.7,0-1,0.2-1.3,0.6c-0.4,0.5-0.8,0.9-0.9,1.4"/>
					</g>
					<path class="st15" d="M246.1,230.9c-0.1,0-0.1-0.1-0.1-0.1c-0.1-0.1-0.1-0.3,0.1-0.4c1.5-0.9,2.8-0.3,2.9-0.3
						c0.2,0.1,0.2,0.3,0.2,0.4c-0.1,0.2-0.3,0.2-0.4,0.2c-0.1,0-1.1-0.5-2.3,0.3C246.3,230.9,246.2,230.9,246.1,230.9z"/>
				</g>
				<g>
					<path class="st15" d="M264.8,225.3c-0.7-2.9-3-5.1-5.7-5.3c-1.7-0.1-3.4,0.4-5.1,0.7c-1.7,0.3-3.6,0.2-4.9-1
						c-0.6-0.6-1.3-1.5-2.1-1.2c-0.6,0.2-0.9,0.9-0.9,1.5c0,0.6,0.3,1.2,0.5,1.8c-0.7-0.1-1.3-0.3-2-0.4c0,2.1,1.1,4.1,2.5,5.4
						c1.5,1.3,3.3,2,5.1,2.5c2.2,0.6,4.5,1,6.8,0.6c2.3-0.4,4.5-1.6,5.9-3.7L264.8,225.3z"/>
				</g>
				<g>
					<path class="st15" d="M263,221c-0.8-1.1-2.1-1.8-3.5-1.9c-1.3-0.1-2.5,0.2-3.8,0.4c-1.3,0.1-2.7,0-3.6-0.9
						c-0.5-0.5-1-1.2-1.6-1c-0.5,0.2-0.6,0.8-0.5,1.3c0.2,1.3,1.2,2.4,2.5,2.7l11.5,3.3C264.2,223.5,263.9,222.1,263,221z"/>
				</g>
			</g>
			<path class="st31" d="M250.7,242.4c1.3,0.2,2.6-0.4,3.3-1.4"/>
			<path class="st6" d="M251.7,258.6c1.7,0.8,2.4,3.2,2.4,3.2s7.2-3.1,7-7.4c-0.6-0.4-0.8-0.9-1.5-1.2
				C259.6,253.1,257.4,257.3,251.7,258.6z"/>
			<path class="st6" d="M251.7,258.6c-2.2,0.2-3.4,3.2-3.4,3.2s-2-3-0.7-7.3c0,0,1-1.2,2.1-1.4C249.7,253.1,249.1,257.7,251.7,258.6
				z"/>
			<path class="st27" d="M276.5,264.9l-7.9,4.8c0,0,8.8,19.1,8.8,22.4c-0.1,6,2.4,19,1.7,25.9c1,0.3,3.7,0.4,4.5-0.1
				c1.6-6.2,3.7-22.5,3.1-26.6C285.3,282.4,276.5,264.9,276.5,264.9z"/>
			<path class="st6" d="M272.7,256.3c5.9,0.9,14.3,30.8,14.3,30.8l-10.9,4.1c0,0-9.5-16.2-11.8-23.5
				C261.8,260.1,266.4,255.4,272.7,256.3z"/>
			<path class="st29" d="M272.7,256.3c5.9,0.9,14.3,30.8,14.3,30.8l-10.9,4.1c0,0-9.5-16.2-11.8-23.5
				C261.8,260.1,266.4,255.4,272.7,256.3z"/>
			<path class="st15" d="M260.3,328.9l37.6-4.9c1.6-0.2,3.2,0.9,3.4,2.6l3.2,24.6c0.2,1.6-0.9,3.2-2.6,3.4l-37.6,4.9
				c-1.6,0.2-3.2-0.9-3.4-2.6l-3.2-24.6C257.5,330.6,258.6,329.1,260.3,328.9z"/>
			<path class="st16" d="M260.3,328.9l37.6-4.9c1.6-0.2,3.2,0.9,3.4,2.6l3.2,24.6c0.2,1.6-0.9,3.2-2.6,3.4l-37.6,4.9
				c-1.6,0.2-3.2-0.9-3.4-2.6l-3.2-24.6C257.5,330.6,258.6,329.1,260.3,328.9z"/>
			<path class="st15" d="M277.3,332.1c-0.6,0-1.2-0.2-1.7-0.6c-0.6-0.5-1-1.1-1.1-1.9l-0.7-5.1c-0.2-1.6,0.9-3,2.5-3.2c0,0,0,0,0,0
				l8.5-1.1c1.6-0.2,3,0.9,3.2,2.5l0.7,5.1c0.2,1.6-0.9,3-2.5,3.2l0,0l-8.5,1.1C277.6,332.1,277.5,332.1,277.3,332.1z M285.2,321.8
				H285l-8.5,1.1c-0.7,0.1-1.1,0.7-1,1.3c0,0,0,0,0,0l0.7,5.1c0,0.3,0.2,0.6,0.5,0.8c0.3,0.2,0.6,0.3,0.9,0.2l8.5-1.1
				c0.7-0.1,1.1-0.7,1-1.3l-0.6-5.1c0-0.3-0.2-0.6-0.5-0.8C285.7,321.9,285.5,321.8,285.2,321.8L285.2,321.8z M286.1,330.1"/>
			<path class="st15" d="M263.9,328.4l37.6-4.9c1.6-0.2,3.2,0.9,3.4,2.6l3.2,24.6c0.2,1.6-0.9,3.2-2.6,3.4l-37.6,4.9
				c-1.6,0.2-3.2-0.9-3.4-2.6l-3.2-24.6C261.1,330.1,262.2,328.6,263.9,328.4z"/>
			<path class="st27" d="M279.4,316.9l-2.4,4.7l7,0.3c1-2.1,0.7-4.6-0.9-6.3L279.4,316.9z"/>
			<path class="st27" d="M279.7,325.2l4.2-0.6l0.2-2.7l-7-0.3l0.1,1.5c0.1,1.3,1.2,2.2,2.4,2.1C279.6,325.2,279.7,325.2,279.7,325.2
				z"/>
			<path class="st6" d="M274.5,289.5c-0.1,0.6,0.7,2.7,1.2,3.5c0.6,0.8,10.1,1.6,11.3-0.3c1.2-1.9,1.3-5.2,0.7-6.3
				S274.7,288.3,274.5,289.5z"/>
		</g>
		<g id="freepik--character-1--inject-2_00000140703253536892823900000011331182321114980480_">
			<path class="st32" d="M193.7,295.6l4.6,2.4l-0.4,1.6l-3.7,3.7c0,0-2.7-2.1-2.6-4.9L193.7,295.6z"/>
			<polygon class="st32" points="194.4,296.3 198.6,295.5 201.3,296.6 199.5,296.9 198.3,298 			"/>
			<path class="st32" d="M202.9,303.9l-4.6,1c-0.5,0.1-1,0-1.4-0.2l-2.7-1.3l3.7-3.7l2.4-0.7l3,3.5c0.3,0.4,0.3,1-0.1,1.3
				C203.2,303.8,203,303.8,202.9,303.9z"/>
			<path class="st15" d="M153,235.3c0.1,0.5,0.5,0.9,0.8,0.8c0.3-0.1,0.5-0.6,0.4-1.1c-0.1-0.5-0.5-0.9-0.8-0.8
				C153.1,234.3,152.9,234.8,153,235.3z"/>
			<path class="st26" d="M153.4,236.2c0.9,1.5,2.1,2.8,3.4,3.9c-0.8,1-2.4,1-2.4,1L153.4,236.2z"/>
			<path class="st15" d="M150.5,232.8c-0.1,0-0.2,0-0.2-0.1c-0.1-0.1-0.1-0.3,0-0.4c0.7-0.8,1.7-1.1,2.7-1c0.2,0.1,0.3,0.2,0.2,0.4
				c0,0.1-0.2,0.2-0.3,0.2l0,0c-0.8-0.1-1.6,0.2-2.1,0.8C150.7,232.7,150.6,232.8,150.5,232.8z"/>
			<path class="st32" d="M138.9,244.5c0.9,4.6,1.4,10.9-1.8,14c0,0,1.2,4.7,9.7,4.7c9.3,0,4.5-4.1,4.5-4.1c-3.9-1.2-3.9-5.6-3-9.2
				L138.9,244.5z"/>
			<path class="st6" d="M136.2,261.6c-0.7-1.2-0.5-4.7,0.4-5.3c1.4-0.9,7.2-0.8,15,1.4c-1,3.4,0.7,5.3,0.7,5.3L136.2,261.6z"/>
			<path class="st15" d="M129.9,259.8c0,0-22.6,25.9-20,38.2c2.5,12.3,18.9,19.1,18.9,19.1l3.5-6.1c0,0-10.4-8.6-11.6-13.6
				c-1.3-5,9.7-18.3,9.7-18.3L129.9,259.8z"/>
			<path class="st23" d="M129.7,270.5c-2.8,2.7-3.6,8.3-3.3,12.1c0.7-1.2,1.4-2.3,2.1-3.4c1.1-1.7,2.3-3.4,3.5-5.1
				c0.3-0.5,0.7-0.9,1-1.4c0.1-0.3,0.1-0.6,0.2-0.9L129.7,270.5z"/>
			<g>
				<polygon class="st32" points="146.8,462.9 153.6,461.6 153.7,445.7 146.9,447 				"/>
				<path class="st15" d="M155.2,458.5l-2.6,0c-0.6,0-1.1,0.3-1.5,0.7c-1.6,1.9-2.7,1.2-4.2-0.7c-1-0.1-1.4,1-1.4,1.3l-2.2,6.7
					c-0.2,0.6,0.1,1.1,0.7,1.3c0.1,0,0.2,0,0.3,0c3.1,0,4.6,0,8.5,0.1l11.9,0.1c3.3,0,4.1-3.1,2.7-3.4c-6-1.3-10.2-3.1-12-4.7
					C155.1,459.6,155.5,459.4,155.2,458.5z"/>
				<path class="st6" d="M160.7,460.5c0.3-0.2,0.5-0.5,0.5-0.8c0-0.2,0-0.3-0.2-0.4c-0.8-0.6-4.1,0.9-4.4,1c0,0-0.1,0-0.1,0.1
					c0,0.1,0,0.1,0.1,0.2c0.8,0.2,1.6,0.3,2.4,0.3C159.5,460.9,160.1,460.7,160.7,460.5z M160.8,459.4c0.1,0,0.1,0.1,0.1,0.2
					c0,0.2-0.1,0.4-0.3,0.6c-0.8,0.5-2.5,0.3-3.5,0.1C158.4,459.8,160.3,459.1,160.8,459.4z"/>
				<path class="st6" d="M156.6,460.5c1-0.4,3.1-1.9,3-2.7c0-0.2-0.1-0.4-0.6-0.4c-1.8-0.2-2.7,2.8-2.7,2.9c0,0.1,0,0.1,0,0.1
					C156.5,460.5,156.5,460.5,156.6,460.5L156.6,460.5z M159,457.7c0.3,0,0.3,0.1,0.3,0.2c0.1,0.5-1.5,1.7-2.5,2.3
					c0.2-0.7,1-2.5,2.1-2.5L159,457.7z"/>
				<path class="st28" d="M156.9,460.4c-0.9,0.1-1.7,0.6-2.3,1.3"/>
				<path class="st28" d="M158.4,461.6c-0.9,0.1-1.7,0.6-2.3,1.3"/>
				<path class="st28" d="M160.4,462.6c-0.9,0.1-1.7,0.6-2.3,1.3"/>
			</g>
			<g>
				<polygon class="st32" points="97.9,459.2 104.7,460.2 110.1,445.2 103.3,444.2 				"/>
				<path class="st15" d="M107.2,457.8l-2.4-0.9c-0.5-0.2-1.2-0.1-1.7,0.2c-2.1,1.3-2.9,0.2-3.7-2c-0.9-0.5-1.6,0.5-1.8,0.7
					l-4.4,5.5c-0.4,0.5-0.3,1.1,0.2,1.5c0.1,0.1,0.2,0.1,0.3,0.1c2.9,1.1,4.3,1.6,8,3l11.2,4.1c3.1,1.1,4.9-1.5,3.7-2.3
					c-5.2-3.3-8.5-6.3-9.7-8.5C106.8,458.9,107.2,458.8,107.2,457.8z"/>
				<path class="st6" d="M111.7,461.5c0.3-0.1,0.6-0.3,0.7-0.6c0.1-0.2,0.1-0.3,0-0.5c-0.6-0.8-4.1-0.6-4.5-0.5c0,0-0.1,0-0.1,0
					c-0.1,0.1,0,0.1,0,0.2c0.7,0.4,1.4,0.8,2.2,1.1C110.5,461.5,111.1,461.6,111.7,461.5z M112.1,460.6c0,0.1,0.1,0.1,0,0.2
					c-0.1,0.2-0.3,0.4-0.5,0.4c-0.9,0.2-2.5-0.6-3.3-1.1C109.8,460.1,111.8,460.2,112.1,460.6z"/>
				<path class="st6" d="M107.9,460.2c1.1,0,3.5-0.7,3.7-1.5c0-0.2,0-0.4-0.4-0.6c-1.6-0.8-3.5,1.8-3.5,1.9c0,0,0,0.1,0,0.1
					C107.8,460.2,107.8,460.2,107.9,460.2L107.9,460.2z M111.1,458.3c0.3,0.1,0.3,0.2,0.2,0.3c-0.1,0.5-2,1.1-3.2,1.3
					c0.5-0.6,1.8-2,2.8-1.6L111.1,458.3z"/>
				<path class="st28" d="M108.2,460.2c-0.9-0.2-1.8,0-2.6,0.5"/>
				<path class="st28" d="M109.2,461.8c-0.9-0.2-1.8,0-2.6,0.5"/>
				<path class="st28" d="M110.7,463.4c-0.9-0.2-1.8,0-2.6,0.5"/>
			</g>
			<path class="st15" d="M149.9,311.6c0,0-7.4,45.4-11.4,62.4c-4.4,18.6-28.1,80.3-28.1,80.3L98.8,452c0,0,16.6-50.2,20.3-76.2
				c2.9-20,8.5-64.1,8.5-64.1L149.9,311.6z"/>
			<path class="st33" d="M149.9,311.6c0,0-7.4,45.4-11.4,62.4c-4.4,18.6-28.1,80.3-28.1,80.3L98.8,452c0,0,16.6-50.2,20.3-76.2
				c2.9-20,8.5-64.1,8.5-64.1L149.9,311.6z"/>
			<path class="st16" d="M145.6,327.8c-7.8,1.5-7.2,27.3-6.2,42.2c2.2-10.6,5.7-27.6,8-42C146.9,327.8,146.2,327.7,145.6,327.8z"/>
			<path class="st15" d="M164.4,311.6c0,0,0.9,44.4,0.2,62.5c-0.8,18.8-8.3,80.5-8.3,80.5h-11.6c0,0-0.4-60.6-0.9-79.1
				c-0.6-20.2-3.4-64-3.4-64H164.4z"/>
			<path class="st33" d="M164.4,311.6c0,0,0.9,44.4,0.2,62.5c-0.8,18.8-8.3,80.5-8.3,80.5h-11.6c0,0-0.4-60.6-0.9-79.1
				c-0.6-20.2-3.4-64-3.4-64H164.4z"/>
			<path class="st15" d="M163.1,266c1.3,6.4,2.8,27.5,0.8,53l-36.7-0.2c-0.2-4.6,3.9-32.1,0.4-54.1c-0.4-2.6,1.4-5,4.1-5.4
				c0,0,0.1,0,0.1,0c1.8-0.2,3.9-0.5,5.9-0.6c4.6-0.3,9.3-0.3,13.9,0c1.5,0.1,3,0.4,4.4,0.6C159.6,259.9,162.4,262.5,163.1,266z"/>
			<path class="st23" d="M162.9,272.3l-5.8,1.4c-0.4,5.4,3.1,11.5,6.7,16.2C163.9,284.1,163.6,278.2,162.9,272.3z"/>
			<path class="st32" d="M135.4,237.7c1.7,6.3,2.3,10.1,6.3,12.7c5.9,4,13.2-0.6,13.4-7.3c0.2-6-2.6-15.3-9.4-16.6
				c-4.8-0.9-9.5,2.2-10.4,7C135,235,135,236.4,135.4,237.7z"/>
			<path class="st15" d="M148.5,237.8c1.5-2.2,2.1-5.6,1-7.2c1,0.4,8.1,0.9,5.3-4.2c-2.8-5.1-8.4-6.4-13.2-5.1l2.4,0.7
				c0,0-6.6-0.5-9.9,2.2c1,0.1,1.8,0,1.8,0s-7.1,3.4-4,5.9c-5,3.8-1.6,9.1,6.6,16.9c1.4,1.3,5.5,0.8,6.4,0
				C144.4,243.7,147.7,239,148.5,237.8z"/>
			<path class="st15" d="M149.3,233.5c1.5,1.1,3.3,4.2,4.1,5.8s1.7,1.4,2.2,2c0.4,0.6,2.2,11.2,0.3,12.9c-1.9,1.7-7.5-1-8.2-2.9
				c-0.7-2,0.6-6.7,1-7.8c0.4-1.9,0.3-3.8-0.3-5.7C147.7,236,149.3,233.5,149.3,233.5z"/>
			<path class="st32" d="M146,238.1c0.4,1.6,1.4,2.9,2.8,3.7c1.7,0.8,1.9-1.2,1.6-3.1c-0.3-1.7-0.8-3.1-2.2-3.8
				C146.7,234,145.5,236.2,146,238.1z"/>
		</g>
		<path class="st15" d="M150.9,265.9c0.4,0.8,9,20.4,19.4,26.2c10.3,5.8,21.1,8.5,21.1,8.5l3-5.5c0,0-16.4-9.1-19.7-13.1
			c-3.3-4-15.7-21-15.7-21L150.9,265.9z"/>
	</g>
</g>
</svg>
