<?xml version="1.0" encoding="utf-8"?>
<!-- Generator: Adobe Illustrator 24.0.1, SVG Export Plug-In . SVG Version: 6.00 Build 0)  -->
<svg version="1.1" id="Capa_1" xmlns="http://www.w3.org/2000/svg" xmlns:xlink="http://www.w3.org/1999/xlink" x="0px" y="0px"
	 viewBox="0 0 794.8 700" style="enable-background:new 0 0 794.8 700;" xml:space="preserve">
<style type="text/css">
	.st0{fill:#7871F0;}
</style>
<title>Banco</title>
<g id="Capa_2_1_">
	<g id="Layer1">
		<path class="st0" d="M705,224.8c26.6,0,30.4-12.3,8.5-27.3L441.4,11.3c-22-15-58-15.1-80-0.2L85,197.8
			c-22,14.9-18.3,27.1,8.3,27.1L705,224.8z"/>
		<path class="st0" d="M373.8,324.3h62.7c10.7,0,19.4,8.7,19.4,19.4v201.3c0,10.7-8.7,19.3-19.4,19.3h-62.7
			c-10.7,0-19.4-8.7-19.4-19.3V343.6C354.4,332.9,363.1,324.3,373.8,324.3z"/>
		<path class="st0" d="M588.6,324.3h62.7c10.7,0,19.3,8.7,19.3,19.4v201.3c0,10.7-8.7,19.3-19.3,19.3h-62.7
			c-10.7,0-19.3-8.7-19.3-19.3V343.6C569.2,332.9,577.9,324.3,588.6,324.3z"/>
		<path class="st0" d="M159,324.3h62.7c10.7,0,19.4,8.7,19.4,19.4v201.3c0,10.7-8.7,19.3-19.4,19.3H159c-10.7,0-19.4-8.7-19.4-19.3
			V343.6C139.7,332.9,148.3,324.3,159,324.3z"/>
		<path class="st0" d="M455.8,588.1v0.3c0,0.1,0,0.1,0-0.2S455.8,588,455.8,588.1z"/>
		<path class="st0" d="M354.4,588.2c0,0.3,0,0.4,0,0.3s0-0.4,0-0.5S354.4,588,354.4,588.2z"/>
		<path class="st0" d="M569.2,588.2c0,0.3,0,0.4,0,0.3c0-0.2,0-0.3,0-0.5C569.2,588,569.2,588,569.2,588.2z"/>
		<path class="st0" d="M670.6,588.1c0,0.1,0,0.2,0,0.3c0,0.1,0,0.1,0-0.2S670.6,588,670.6,588.1z"/>
		<path class="st0" d="M139.7,588.2c0,0.3,0,0.4,0,0.3s0-0.4,0-0.5S139.7,588,139.7,588.2z"/>
		<path class="st0" d="M241,588.1c0,0.1,0,0.2,0,0.3c0,0.1,0,0.1,0-0.2S241,588,241,588.1z"/>
		<path class="st0" d="M67,623.8c0,10.7,8.7,19.3,19.3,19.4h622.2c10.7,0,19.3-8.7,19.3-19.3v-11.3c0-10.7-8.7-19.3-19.3-19.3h-19.3
			c-10.7,0-19.2-0.7-19-1.6s-1.6-7.6-4-12.8s-23.6-9.4-34.3-9.4h-24c-10.6,0-23.6,1.9-28.9,4.2s-9.7,15.4-9.6,16.3
			s-8.1,3.3-18.7,3.3h-76.3c-10.6,0-19.2-0.7-19-1.6s-1.6-7.6-4-12.8s-23.6-9.4-34.3-9.4h-24c-10.6,0-23.6,1.9-28.9,4.2
			s-9.7,15.4-9.6,16.3s-8.1,3.3-18.7,3.3h-76.3c-10.6,0-19.2-0.7-19-1.6s-1.6-7.6-4-12.8s-23.6-9.4-34.3-9.4h-24
			c-10.6,0-23.6,1.9-28.9,4.2s-9.7,15.4-9.6,16.3s-8.1,3.3-18.7,3.3H86.3c-10.7,0-19.3,8.7-19.3,19.3V623.8z"/>
		<path class="st0" d="M578.9,312.2c5.3,2.4,18.4,4.4,29,4.4h24c10.6,0,23.7-2,29-4.4s9.7-17.6,9.7-20.9s8.7-5.9,19.3-5.9h18.6
			c10.7,0,19.3-8.7,19.3-19.4v-11.3c0-10.7-8.7-19.3-19.3-19.4H86.3c-10.7,0-19.3,8.7-19.3,19.4v11.3c0,10.7,8.7,19.3,19.3,19.4h34
			c10.6,0,19.3,2.6,19.3,5.9s2,10.3,4.4,15.6s23.7,9.7,34.3,9.7h24c10.6,0,23.7-2,29-4.4s9.6-17.7,9.6-20.9s8.7-5.9,19.4-5.9H335
			c10.6,0,19.4,2.6,19.4,5.9s2,10.3,4.4,15.6s23.7,9.7,34.3,9.7h24c10.6,0,23.7-2,29-4.4s9.7-17.6,9.7-20.9s8.7-5.9,19.4-5.9h74.7
			c10.6,0,19.3,2.6,19.3,5.9S573.6,309.8,578.9,312.2z"/>
		<path class="st0" d="M21.2,650h752.4c11.7,0,21.2,9.5,21.2,21.2v7.6c0,11.7-9.5,21.2-21.2,21.2H21.2C9.5,700,0,690.5,0,678.8v-7.6
			C0,659.5,9.5,650,21.2,650z"/>
	</g>
</g>
</svg>
