<?xml version="1.0" encoding="utf-8"?>
<!-- Generator: Adobe Illustrator 24.0.1, SVG Export Plug-In . SVG Version: 6.00 Build 0)  -->
<svg version="1.1" id="Capa_1" xmlns="http://www.w3.org/2000/svg" xmlns:xlink="http://www.w3.org/1999/xlink" x="0px" y="0px"
	 viewBox="0 0 807.6 700" style="enable-background:new 0 0 807.6 700;" xml:space="preserve">
<style type="text/css">
	.st0{fill:#7871F0;}
	.st1{fill:#FFFFFF;}
</style>
<title>Computadora</title>
<g id="Capa_2_1_">
	<g id="Layer1">
		<path class="st0" d="M511.2,589.5h254c23.4,0,42.4-19,42.4-42.4c0,0,0,0,0,0V42.4c0-23.4-19-42.4-42.4-42.4H42.4C19,0,0,19,0,42.4
			V547c0,23.4,19,42.4,42.4,42.4h248.2c0,0,16.9-0.2,15.1,11.9v38.6c0,22-34,30-59.1,33c-4.4,0-8.8,0.7-13,1.9
			c-14.2,4.1-13.2,13.3-13.2,13.3V700h360.2v-13.5c0,0,0.1-11.7-11.1-12.2c-23.1-1.4-74.3-7.5-74.3-34.4v-39
			C495.1,588.9,511.2,589.5,511.2,589.5z"/>
		<rect x="35.1" y="33.8" class="st1" width="737.4" height="522"/>
		<path class="st0" d="M163.5,294.7h343.1c1.9,0,3.5,1.6,3.5,3.5v129.2c0,1.9-1.6,3.5-3.5,3.5H163.5c-1.9,0-3.5-1.6-3.5-3.5V298.2
			C160,296.2,161.5,294.7,163.5,294.7z"/>
		<path class="st0" d="M378.7,362.7c0-26.1-16.8-47.2-37.4-47.2s-37.4,21.1-37.4,47.2s16.8,47.2,37.4,47.2S378.7,388.8,378.7,362.7z
			"/>
		<path class="st0" d="M380.3,362.7c0-26.9-17.5-48.9-39-48.9s-39,21.9-39,48.9s17.5,48.9,39,48.9S380.3,389.6,380.3,362.7z
			 M305.5,362.7c0-25.1,16-45.6,35.8-45.6s35.8,20.5,35.8,45.6s-16.1,45.6-35.8,45.6S305.5,387.8,305.5,362.7z"/>
		<path class="st1" d="M341.2,383.5c-4.8,0-9.4-1.4-13.4-4l-2.3,6.3c3.3,2.4,8.8,4,14.3,4.1v9.4h5.9v-9.8c9.7-1.5,14.8-8.5,14.8-16
			c0-8.4-4.9-13.1-14.5-17.1c-8.2-3.5-11.6-5.9-11.6-10.7c0-3.9,2.7-8.2,10-8.2c4.2,0,8.3,1.1,11.8,3.3l2.4-6.2
			c-3.7-2.1-7.9-3.2-12.2-3.3v-9.1h-5.9v9.4c-8.5,1.4-14.1,7.3-14.1,15.1c0,8.2,5.9,12.6,15.5,16.3c6.9,2.8,10.6,6,10.6,11.2
			C352.4,379.6,347.9,383.5,341.2,383.5z"/>
		<path class="st1" d="M173.6,328.3c-0.6,0-1.2,0.1-1.8,0.1s-1.2,0-1.8-0.1v68.1c0.6,0,1.2-0.1,1.8-0.1s1.2,0,1.8,0.1
			c12.3,0.9,22.2,10.7,23.1,23c0,0.6,0.1,1.2,0.1,1.8s0,1.2-0.1,1.8h276c0-0.6-0.1-1.2-0.1-1.8s0-1.2,0.1-1.8
			c0.9-12.3,10.7-22.1,23-23c0.6,0,1.2-0.1,1.8-0.1s1.2,0,1.8,0.1v-68.1c-0.6,0-1.2,0.1-1.8,0.1s-1.2,0-1.8-0.1
			c-12.3-0.9-22.1-10.7-23-23c0-0.6-0.1-1.2-0.1-1.8s0-1.2,0.1-1.8h-276c0,0.6,0.1,1.2,0.1,1.8s0,1.2-0.1,1.8
			C195.8,317.7,186,327.5,173.6,328.3z M200.2,305.3h269c0.9,14.3,12.3,25.7,26.6,26.5v61c-14.3,0.9-25.7,12.3-26.6,26.6h-269
			c-0.9-14.3-12.3-25.7-26.6-26.6v-61C187.9,331,199.3,319.6,200.2,305.3L200.2,305.3z"/>
		<path class="st0" d="M204.7,259.3h343.2c1.9,0,3.5,1.6,3.5,3.5V392c0,1.9-1.6,3.5-3.5,3.5H204.7c-1.9,0-3.5-1.6-3.5-3.5V262.8
			C201.2,260.8,202.7,259.3,204.7,259.3z"/>
		<path class="st0" d="M419.9,327.3c0-26.1-16.8-47.2-37.4-47.2s-37.4,21.1-37.4,47.2s16.8,47.2,37.4,47.2S419.9,353.3,419.9,327.3z
			"/>
		<path class="st0" d="M421.5,327.3c0-26.9-17.5-48.9-39-48.9s-39,21.9-39,48.9s17.5,48.9,39,48.9S421.5,354.2,421.5,327.3z
			 M346.7,327.3c0-25.1,16.1-45.6,35.8-45.6s35.8,20.5,35.8,45.6s-16,45.6-35.8,45.6S346.7,352.4,346.7,327.3z"/>
		<path class="st1" d="M382.4,348c-4.8,0-9.4-1.4-13.4-4l-2.3,6.3c3.3,2.3,8.8,4,14.3,4.1v9.4h6V354c9.7-1.5,14.8-8.5,14.8-16
			c0-8.4-4.9-13.1-14.5-17.1c-8.2-3.5-11.6-5.9-11.6-10.7c0-3.9,2.7-8.2,10-8.2c4.2,0,8.3,1.1,11.8,3.3l2.3-6.2
			c-3.7-2.1-7.9-3.2-12.2-3.3v-9.1h-6v9.4c-8.5,1.4-14.1,7.3-14.1,15.1c0,8.2,5.9,12.6,15.5,16.3c7,2.8,10.6,6,10.6,11.2
			C393.6,344.2,389.1,348,382.4,348z"/>
		<path class="st1" d="M214.8,292.9c-0.6,0-1.2,0.1-1.8,0.1s-1.2,0-1.8-0.1v68c0.6,0,1.2-0.1,1.8-0.1s1.2,0,1.8,0.1
			c12.3,0.9,22.1,10.7,23,23c0,0.6,0.1,1.2,0.1,1.8s0,1.2-0.1,1.8h276c0-0.6-0.1-1.2-0.1-1.8s0-1.2,0.1-1.8
			c0.9-12.4,10.8-22.1,23.2-23c0.6,0,1.2-0.1,1.7-0.1c0.6,0,1.2,0,1.8,0.1v-68c-0.6,0-1.2,0.1-1.8,0.1s-1.2,0-1.7-0.1
			c-12.3-0.9-22.2-10.7-23-23c0-0.6-0.1-1.2-0.1-1.8s0-1.2,0.1-1.8H238c0,0.6,0.1,1.2,0.1,1.8s0,1.2-0.1,1.8
			C237,282.3,227.2,292.1,214.8,292.9z M241.4,269.9h269c0.9,14.3,12.3,25.7,26.6,26.6v61c-14.3,0.9-25.7,12.3-26.6,26.6h-269
			c-0.9-14.3-12.3-25.7-26.6-26.6v-61C229.1,295.5,240.5,284.1,241.4,269.9L241.4,269.9z"/>
		<path class="st0" d="M245.9,211.9H589c1.9,0,3.5,1.6,3.5,3.5v129.2c0,1.9-1.6,3.5-3.5,3.5H245.9c-1.9,0-3.5-1.6-3.5-3.5V215.4
			C242.4,213.5,243.9,211.9,245.9,211.9z"/>
		<path class="st0" d="M461.1,279.9c0-26.1-16.8-47.2-37.4-47.2s-37.4,21.1-37.4,47.2s16.8,47.2,37.4,47.2S461.1,306,461.1,279.9z"
			/>
		<path class="st0" d="M462.7,279.9c0-26.9-17.5-48.9-39-48.9s-39,21.9-39,48.9s17.5,48.9,39,48.9S462.7,306.9,462.7,279.9z
			 M387.9,279.9c0-25.1,16-45.6,35.8-45.6s35.8,20.5,35.8,45.6s-16,45.6-35.8,45.6S387.9,305.1,387.9,279.9z"/>
		<path class="st1" d="M423.6,300.7c-4.8,0-9.4-1.4-13.4-4L408,303c3.3,2.3,8.8,4,14.3,4.1v9.4h5.9v-9.8c9.7-1.5,14.8-8.5,14.8-16
			c0-8.4-4.9-13.1-14.6-17.1c-8.2-3.5-11.6-5.9-11.6-10.7c0-3.9,2.7-8.2,10-8.2c4.2,0,8.3,1.1,11.8,3.3l2.4-6.2
			c-3.7-2.1-7.9-3.2-12.2-3.3v-9.1h-5.9v9.4c-8.5,1.4-14.1,7.3-14.1,15.1c0,8.2,5.9,12.6,15.5,16.3c7,2.8,10.6,6,10.6,11.2
			C434.8,296.9,430.3,300.7,423.6,300.7z"/>
		<path class="st1" d="M256,245.6c-0.6,0-1.2,0.1-1.8,0.1s-1.2,0-1.8-0.1v68c0.6,0,1.2-0.1,1.8-0.1s1.2,0,1.8,0.1
			c12.3,0.9,22.2,10.7,23,23c0,0.6,0.1,1.2,0.1,1.8s0,1.2-0.1,1.8h276c0-0.6-0.1-1.2-0.1-1.8s0-1.2,0.1-1.8
			c0.9-12.3,10.7-22.1,23-23c0.6,0,1.2-0.1,1.8-0.1s1.2,0,1.8,0.1v-68c-0.6,0-1.2,0.1-1.8,0.1s-1.2,0-1.8-0.1
			c-12.3-0.9-22.1-10.7-23-23c0-0.6-0.1-1.2-0.1-1.8s0-1.2,0.1-1.8H279c0,0.6,0.1,1.2,0.1,1.8s0,1.2-0.1,1.8
			C278.1,234.9,268.3,244.7,256,245.6z M282.6,222.6h269c0.9,14.3,12.3,25.7,26.5,26.6v61c-14.3,0.9-25.7,12.3-26.5,26.6h-269
			c-0.9-14.3-12.3-25.7-26.6-26.6v-61C270.3,248.2,281.7,236.8,282.6,222.6L282.6,222.6z"/>
		<path class="st0" d="M287.1,171.4h343.1c1.9,0,3.5,1.6,3.5,3.5v129.2c0,1.9-1.6,3.5-3.5,3.5H287.1c-1.9,0-3.5-1.6-3.5-3.5V174.9
			C283.6,173,285.1,171.4,287.1,171.4z"/>
		<path class="st0" d="M502.3,239.4c0-26.1-16.7-47.2-37.4-47.2s-37.4,21.1-37.4,47.2s16.8,47.2,37.4,47.2S502.3,265.5,502.3,239.4z
			"/>
		<path class="st0" d="M503.9,239.4c0-26.9-17.5-48.9-39-48.9s-39,21.9-39,48.9s17.5,48.9,39,48.9S503.9,266.3,503.9,239.4z
			 M429.1,239.4c0-25.1,16-45.6,35.8-45.6s35.8,20.5,35.8,45.6S484.6,285,464.9,285S429.1,264.5,429.1,239.4L429.1,239.4z"/>
		<path class="st1" d="M464.8,260.2c-4.8,0-9.4-1.4-13.4-4l-2.3,6.3c3.3,2.3,8.8,4,14.3,4.1v9.4h5.9v-9.8c9.7-1.5,14.8-8.5,14.8-16
			c0-8.4-4.9-13.1-14.5-17.1c-8.2-3.5-11.6-5.9-11.6-10.7c0-3.9,2.7-8.2,10-8.2c4.2,0,8.3,1.1,11.8,3.3l2.4-6.2
			c-3.7-2.1-7.9-3.2-12.2-3.3V199H464v9.4c-8.5,1.4-14.1,7.3-14.1,15.1c0,8.2,5.9,12.6,15.5,16.3c6.9,2.8,10.6,6,10.6,11.2
			C476,256.3,471.5,260.2,464.8,260.2z"/>
		<path class="st1" d="M297.2,205.1c-0.6,0-1.2,0.1-1.8,0.1s-1.2,0-1.8-0.1v68c0.6,0,1.2-0.1,1.8-0.1s1.2,0,1.8,0.1
			c12.3,0.9,22.1,10.7,23,23c0,0.6,0.1,1.2,0.1,1.8s0,1.2-0.1,1.8h276c0-0.6-0.1-1.2-0.1-1.8s0-1.2,0.1-1.8
			c0.9-12.3,10.7-22.1,23-23c0.6,0,1.2-0.1,1.8-0.1s1.2,0,1.8,0.1v-68c-0.6,0-1.2,0.1-1.8,0.1s-1.2,0-1.8-0.1
			c-12.3-0.9-22.1-10.7-23-23.1c0-0.6-0.1-1.2-0.1-1.8s0-1.2,0.1-1.8h-276c0,0.6,0.1,1.2,0.1,1.8s0,1.2-0.1,1.8
			C319.4,194.4,309.6,204.2,297.2,205.1z M323.8,182h269c0.9,14.3,12.3,25.7,26.6,26.6v61c-14.3,0.9-25.7,12.3-26.6,26.6h-269
			c-0.9-14.3-12.3-25.7-26.6-26.6v-61C311.5,207.7,322.9,196.3,323.8,182z"/>
		<path class="st0" d="M328.3,130.8h343.2c1.9,0,3.5,1.6,3.5,3.5v129.2c0,1.9-1.6,3.5-3.5,3.5H328.3c-1.9,0-3.5-1.6-3.5-3.5V134.3
			C324.8,132.4,326.3,130.8,328.3,130.8z"/>
		<path class="st0" d="M543.5,198.8c0-26.1-16.8-47.2-37.4-47.2s-37.4,21.1-37.4,47.2s16.8,47.2,37.4,47.2S543.5,224.9,543.5,198.8z
			"/>
		<path class="st0" d="M545.1,198.8c0-26.9-17.5-48.9-39-48.9s-39,21.9-39,48.9s17.5,48.9,39,48.9S545.1,225.8,545.1,198.8z
			 M470.3,198.8c0-25.1,16.1-45.6,35.8-45.6s35.8,20.5,35.8,45.6s-16,45.6-35.8,45.6S470.3,224,470.3,198.8z"/>
		<path class="st1" d="M506,219.6c-4.8,0-9.4-1.4-13.4-4l-2.3,6.3c3.3,2.3,8.8,4,14.3,4.1v9.4h5.9v-9.8c9.7-1.5,14.8-8.4,14.8-16
			c0-8.4-4.9-13.1-14.5-17.1c-8.2-3.5-11.6-5.9-11.6-10.7c0-3.9,2.7-8.2,10-8.2c4.2,0,8.3,1.1,11.9,3.3l2.3-6.2
			c-3.7-2.1-7.9-3.2-12.2-3.3v-9.1h-5.9v9.4c-8.5,1.4-14.1,7.3-14.1,15.1c0,8.2,5.9,12.6,15.5,16.3c7,2.8,10.6,6,10.6,11.2
			C517.2,215.8,512.7,219.6,506,219.6z"/>
		<path class="st1" d="M338.4,164.5c-0.6,0-1.2,0.1-1.8,0.1s-1.2,0-1.8-0.1v68c0.6,0,1.2-0.1,1.8-0.1s1.2,0,1.8,0.1
			c12.3,0.9,22.1,10.7,23,23.1c0,0.6,0.1,1.2,0.1,1.7s0,1.2-0.1,1.8h276.1c0-0.6-0.1-1.2-0.1-1.8s0-1.2,0.1-1.7
			c0.9-12.3,10.7-22.1,23-23.1c0.6,0,1.2-0.1,1.7-0.1c0.6,0,1.2,0,1.8,0.1v-68c-0.6,0-1.2,0.1-1.8,0.1s-1.2,0-1.7-0.1
			c-12.3-0.9-22.1-10.7-23-23.1c0-0.6-0.1-1.2-0.1-1.8s0-1.2,0.1-1.8h-276c0,0.6,0.1,1.2,0.1,1.8s0,1.2-0.1,1.8
			C360.6,153.8,350.8,163.6,338.4,164.5z M365,141.4h269c0.9,14.3,12.3,25.7,26.6,26.6v61c-14.3,0.9-25.7,12.3-26.6,26.6H365
			c-0.9-14.3-12.3-25.7-26.6-26.6v-61C352.7,167.1,364.1,155.7,365,141.4z"/>
	</g>
</g>
</svg>
