<?xml version="1.0" encoding="utf-8"?>
<!-- Generator: Adobe Illustrator 24.0.1, SVG Export Plug-In . SVG Version: 6.00 Build 0)  -->
<svg version="1.1" id="Capa_1" xmlns="http://www.w3.org/2000/svg" xmlns:xlink="http://www.w3.org/1999/xlink" x="0px" y="0px"
	 viewBox="0 0 958.9 700" style="enable-background:new 0 0 958.9 700;" xml:space="preserve">
<style type="text/css">
	.st0{fill:#7871F0;}
	.st1{fill:#FFFFFF;}
	.st2{fill:#EDEDED;}
</style>
<title>Moneda</title>
<g id="Capa_2_1_">
	<g id="Layer1">
		<path class="st0" d="M221.8,281.4c26.3,0,47.5-22.2,47.5-49.7V49.7c0-27.4-21.3-49.7-47.5-49.7H47.5C21.3,0,0,22.2,0,49.7v182.1
			c0,27.4,21.3,49.7,47.5,49.7H221.8z"/>
		<polygon class="st1" points="193.5,63.7 170.2,63.6 132.3,119.2 99.2,63.7 75.8,63.7 122,140.8 122,149 92,149 92,162.4 
			121.9,162.4 122,180.5 92.1,180.5 92.1,195.1 122,195 122,217.8 142.7,217.8 142.7,195.2 172.8,195.2 172.8,180.7 142.8,180.7 
			142.8,162.6 172.7,162.6 172.7,149 142.8,149 142.8,140.7 		"/>
		<path class="st2" d="M448.3,400.5c31.7,0,57.5-27,57.5-60.1V158.3c0-33.1-25.8-60.1-57.5-60.1H274c-31.7,0-57.5,27-57.5,60.1
			v182.1c0,33.1,25.8,60.1,57.5,60.1H448.3z"/>
		<path class="st0" d="M448.3,390.1c26.3,0,47.5-22.2,47.5-49.7V158.3c0-27.4-21.3-49.7-47.5-49.7H274c-26.2,0-47.5,22.2-47.5,49.7
			v182.1c0,27.4,21.3,49.7,47.5,49.7H448.3z"/>
		<path class="st1" d="M298,256.7h28.9c1.4,1.9,2.8,3.6,4.1,5.4c4.9,6.3,9.9,12.7,10.3,16.8c0.6,6-2,15.2-6.5,23.3
			c-3.2,5.8-7.1,10.4-11,13.3c-4.3,2-7.1,3.5-7.2,3.6l7.8,20.2c3.3-1,6.5-2.5,9.4-4.4c1.9-0.8,4.1-1.7,6.5-2.6
			c10.3-3.8,19.5-5.5,26.6-4.9c6.4,0.5,9.1,2.6,13,5.5c3,2.3,6.8,5.1,12,6.6c2.9,0.9,5.8,1.3,8.8,1.3c3.6,0,7.1-0.5,10.5-1.3
			l10.3-2.4l-4.6-21.4l-10.3,2.4c-8.1,1.9-9.8,0.5-14.5-3s-11.4-8.5-23.6-9.6c-4-0.3-7.9-0.2-11.9,0.2c4.3-10.1,6.4-20.5,5.5-29
			c-0.7-7.3-4.1-13.7-8.5-20H392v-14.6h-49.5c-5.7-7.8-10.6-15.9-10.6-24.8c0-20.6,16-37.3,35.7-37.3s35.7,16.7,35.7,37.3v11h21v-11
			c0-7.9-1.5-15.7-4.5-23.1c-2.8-7-6.9-13.4-12.1-18.8c-5.1-5.4-11.2-9.7-18-12.7c-14.1-6.2-30.1-6.2-44.1,0
			c-6.8,3-12.9,7.3-18,12.7c-5.2,5.4-9.3,11.8-12.1,18.8c-3,7.3-4.5,15.1-4.5,23c0.1,8.7,2.3,17.2,6.4,24.8H298V256.7z"/>
		<path class="st2" d="M674.8,556.1c31.7,0,57.5-27,57.5-60.1V313.9c0-33.1-25.8-60.1-57.5-60.1H500.5c-31.7,0-57.5,27-57.5,60.1
			V496c0,33.1,25.8,60.1,57.5,60.1L674.8,556.1z"/>
		<path class="st0" d="M674.8,545.6c26.3,0,47.5-22.2,47.5-49.7V313.9c0-27.4-21.3-49.6-47.5-49.6H500.5
			c-26.2,0-47.5,22.2-47.5,49.6V496c0,27.4,21.3,49.7,47.5,49.7L674.8,545.6z"/>
		<path class="st1" d="M576.5,363.5c6.5-5.9,14-10.4,22.4-12.1c5.7-1.2,11.6-1.5,17.4-0.9c4.1,0.5,8.1,1.5,12,2.9
			c10.1,4.1,19.2,10.2,26.8,18.1l15.5-26.4c0,0-7.5-10.9-26.3-19.2c-1.6-0.8-11.4-4.8-18.4-5.9c-38-6.1-62.1,14.4-66.1,17.7
			c-8.2,7.1-15.1,15.7-20.1,25.4c-2.3,4.7-4.3,9.4-6,14.4c-0.7,1.9-1.3,3.8-1.7,5.8l-17.9,0.1l-9.2,14.5H530v12.9h-16.6l-8.5,13.9
			h27.3c0.3,0.1,0.6,2.4,0.6,2.7c0.4,1.7,0.6,3.4,1.2,5c11.7,36.1,32.5,46.2,35.9,48.1c7.5,4.2,24,12.2,48.9,10.4
			c15.5-0.1,29.6-6.9,41.8-16.7c0.6-0.5,5.1-3.3,5.1-4.3v-36.4c-9.2,10.6-20.8,18.7-33.9,23.6c-6.3,2.3-13.9,3.1-20.9,3.1
			c-7.1,0-14.1-1.4-20.5-4.2c-8.5-3.6-16.8-10.2-21.9-18.3c-1.1-1.8-2.2-3.7-3.2-5.6c-1-2.1-1.9-4-3.5-7.5h13.7h17.9h19h15.4h7.3
			l7.7-13.9l-83.6-0.1v-12.9h86.9l8.3-14.7h-92.4c1.7-3.7,3.8-7.3,6.3-10.6C570.8,369.2,573.5,366.2,576.5,363.5z"/>
		<path class="st2" d="M901.4,700c31.7,0,57.5-27,57.5-60.1V457.8c0-33.1-25.8-60.1-57.5-60.1H727.1c-31.7,0-57.5,27-57.5,60.1
			v182.1c0,33.1,25.8,60.1,57.5,60.1H901.4z"/>
		<path class="st0" d="M901.4,689.5c26.3,0,47.5-22.2,47.5-49.7V457.8c0-27.4-21.3-49.7-47.5-49.7H727.1
			c-26.2,0-47.5,22.2-47.5,49.7v182.1c0,27.4,21.3,49.7,47.5,49.7L901.4,689.5z"/>
		<path class="st1" d="M809.9,600.4c-9.3,0-18.4-2.7-26.2-7.7l-5.5-3.7l-7.4,24.5l3.1,2.2c6.5,4.5,17.1,7.9,27.5,9v20.8h19.8V624
			l-1.1,0.2c10.1-1.7,18.6-5.7,25-11.9c8-7.7,12.4-18.5,12.4-30.4c0-25.8-17.7-36.5-35.1-43.4c-18.5-7.5-21.8-12.5-21.8-20.5
			c0-6.7,4.9-14.4,18.7-14.4c9.3,0,17,2.8,21,5.4l5.4,3.5l7.8-24.1l-3.5-2.2c-7.4-4.5-18.4-7.1-30.1-7.1l0,0h-1.3h1.3l0,0h1.3v-26.9
			h-19.7v29.9h0.1c-5.3,1.8-10.2,4.7-14.4,8.4c-8.4,7.5-13.1,18.3-12.9,29.5c0,19.2,11.9,33,36.4,42.3c17.1,6.7,20.4,12.7,20.4,21
			C831.2,594,823.2,600.4,809.9,600.4z M803.3,624.9L803.3,624.9z M806.9,625.1L806.9,625.1z M808.9,625.1c0.8,0,1.5,0,2.3,0
			C810.5,625.1,809.7,625.1,808.9,625.1L808.9,625.1z M811.8,625c0.8,0,1.5-0.1,2.2-0.1C813.3,625,812.5,625,811.8,625L811.8,625z
			 M814.7,624.9c0.7-0.1,1.4-0.1,2.1-0.2C816.1,624.7,815.4,624.8,814.7,624.9L814.7,624.9z M817.5,624.6l1.6-0.2L817.5,624.6z
			 M817.5,479.1l-1.2,0.1L817.5,479.1z M815.1,479.3l-1,0.1L815.1,479.3z M812.7,479.5l-0.9,0.1L812.7,479.5z M810.4,479.8l-0.9,0.2
			L810.4,479.8z M808.1,480.3l-0.8,0.2L808.1,480.3z M805.8,480.8c-0.3,0.1-0.5,0.1-0.8,0.2C805.4,481,805.6,480.9,805.8,480.8
			L805.8,480.8z M803.7,481.4l-0.7,0.2L803.7,481.4z"/>
		<polygon class="st1" points="820,479.1 820,479.1 820,479.1 		"/>
	</g>
</g>
</svg>
